<?xml version="1.0" encoding="utf-8"?>
<!-- Generator: Adobe Illustrator 28.0.0, SVG Export Plug-In . SVG Version: 6.00 Build 0)  -->
<svg version="1.1" id="Capa_1" xmlns="http://www.w3.org/2000/svg" xmlns:xlink="http://www.w3.org/1999/xlink" x="0px" y="0px"
	 viewBox="0 0 295.7 816" style="enable-background:new 0 0 295.7 816;" xml:space="preserve">
<style type="text/css">
	.st0{fill:#55483F;}
	.st1{fill:#FDE6D0;}
	.st2{fill:#E87948;}
	.st3{fill:#2D2723;}
	.st4{fill:#FDEC83;}
	.st5{fill:#7D7266;}
	.st6{fill:#60544A;}
	.st7{fill:#F8AF75;}
	.st8{fill:#6A5F54;}
	.st9{fill:#6A3C27;}
	.st10{fill:#756A5E;}
	.st11{fill:#92877A;}
	.st12{fill:#7F7D7A;}
	.st13{display:none;fill:#7D7266;}
	.st14{fill:#F2E1D0;}
	.st15{fill:#FDE463;}
	.st16{fill:#EB8957;}
	.st17{fill:#887D70;}
	.st18{fill:#706559;}
	.st19{fill:#FEE771;}
	.st20{fill:#847736;}
	.st21{fill:#E7D7C7;}
	.st22{fill:#E1D4C3;}
	.st23{fill:#DACBBB;}
	.st24{fill:#A59A8C;}
	.st25{fill:#9B9183;}
	.st26{fill:#B0A496;}
	.st27{fill:#B9AD9E;}
	.st28{fill:#CEC0B0;}
	.st29{fill:#C3B6A7;}
</style>
<path class="st0" d="M266,753.7c0.4,0.3,0.8,0.6,1.5,1.2c-0.7,0.5-1.4,0.9-1.9,1.5c-2,2.1-2,2.1-3.7-0.3c0.3-0.6,0.6-1.2,0.9-1.8
	c-0.6,0-1.3-0.1-1.9-0.1c-0.2,0-0.5,0-0.7,0.1c-3,1.2-5.9,2.6-8.9,3.4c-11.1,2.8-22.2,5.4-33.3,8.2c-18.1,4.4-36.4,8-54.8,10.5
	c-9.3,1.3-18.7,2.7-28,3.6c-8.2,0.8-16.4,1-24.6,1.2c-5.2,0.1-10.4-0.1-15.4-0.9c-5.7-0.9-11.3-2.3-16.8-3.9
	c-11-3.1-21.4-7.9-30.9-14.4c-2.5-1.7-5.2-3.4-5.2-7c0-0.1-0.4-0.2-0.6-0.3c0-0.1,0-0.3,0.1-0.4c1.5,0,1.4-1.2,1.4-2.1
	c0.3-6.6,0.5-13.2,0.7-19.8c0.2-5.2,0.3-10.3,0.4-15.5c0.1-6.1,0.2-12.2,0.4-18.3c0.1-5.2,0.2-10.5,0.4-15.7
	c0.1-4.2,0.2-8.5,0.4-12.7c0.2-7.1,0.5-14.2,0.8-21.3c0.2-5.3,0.5-10.7,0.7-16c0.3-5.9,0.5-11.8,0.8-17.7c1.2-0.1,2.5,0.3,3.3-1
	c0.5-0.8,1.5-1.4,2.4-2.2c-0.3-0.9,0-1.5,1.4-1.6c0.8-0.1,2.1-0.1,1.7-1.7h-1.9c1.8-1.3,3.5-2.6,5.1-3.9c1.1-0.8,2.1-1.7,3.1-2.6
	c0.5-0.5,0.7-1.5,1.3-1.7c1.4-0.6,2.8-1,4.3-1.3c2.7-0.5,2.8-0.7,1.5-3.2c0.6-0.1,1.1-0.1,1.6-0.3c0.8-0.3,2.1-0.5,2.4-1.1
	c1-2,2.5-2.2,4.5-2.3c1.6-0.1,3.2-0.8,4-2.3c1.1-2.2,2.3-4.2,5.3-3.7c0.2,0,0.4-0.2,0.7-0.3c1.8-1.1,2.6-3.5,5.2-3.3
	c0.2,0,0.3-0.4,0.5-0.5c0.4-0.2,0.8-0.4,1.2-0.5c0.5-0.2,1.1-0.1,1.5-0.4c1.2-0.7,2-1.7,3.6-2c0.9-0.2,1.7-0.9,2.8-0.2
	c0.2,0.1,0.9-0.4,1.1-0.7c1.1-1.6,2.9-1.6,4.5-2c0.8-0.2,1.9,0.4,2.8,0.7c1.2,0.4,2.4-0.7,3.2-2.6c1.2-0.2,2.6,0,3.6-0.6
	c1.2-0.7,2.1-0.7,3.2,0c0.4,0.3,1,0.5,1.6,0.7c0.2-0.7,0.4-1.2,0.6-1.8l0.3,0.3c0.8-0.5,1.5-1.1,2.1-1.6c1.9,0.3,3.8,0.7,5.7,1
	c0.2,0,0.5-0.3,0.8-0.4c0.6-0.1,1.3-0.1,1.9-0.2c1.1-0.1,2.4,0.2,3.3-0.2c1.1-0.6,1.8-1.5,3.4-1.6c1.3-0.1,1.9-0.2,2.4,0.3
	c2.9-0.5,5.8-1,8.6-1.6c1.1,2.8,2.6,3.5,4.1,1.9l0,0c0.6-0.3,1.3-0.6,2-1c0.8,1.9,3.3-1.8,3.9,1.4c1.4-1.7,2.4-1.3,3.1,0.2
	c0.9-0.6,1.8-1.2,2.6-1.8c0.1,0.2,0.2,0.3,0.4,0.5c-0.2,0.5-0.4,1.1-0.6,1.8c0.8,0.1,1.8,0.6,2.2,0.3c0.9-0.6,1.4-0.5,2,0.3
	c0.2,0.3,0.8,0.3,1.2,0.3c2.2-0.4,4.2,0.1,5.8,1.7c0.1,0.2,0.4,0.1,0.7,0.2c0.3-2.1,0.4-2.1,2.1-1.1c1.2,0.7,2.4,1.2,3.7,1.7
	c0.3,0.1,0.9,0,1.1-0.3c1.3-1.3,1.6-0.7,1.7,0.8c0,0.2,0.2,0.5,0.5,1c0.3-0.6,0.4-1.1,0.7-1.3c0.5-0.3,1.1-0.5,1.8-0.6
	c0.1,0,0.4,0.8,0.5,1.3c0.1,1.1,1.1,1.7,2.3,1.4c0.6-0.1,1.5-0.2,1.7,0.1c0.9,1.1,1.8,0.9,2.7,0.2c0.1-0.1,0.3,0.1,0.6,0.1
	c-0.2,0.5-0.3,1-0.5,1.7c6.4,0.3,12.2,1.7,16.2,7.2c1.6-1.9,2.8-0.1,4.2,0.1c-0.2,0.7-0.3,1.1-0.5,1.6c1.3,0.1,2.4,0.2,3.6,0.2
	c0.1,0.5,0.3,1.1,0.3,1.6c0.3,5.6,0.5,11.2,0.7,16.8c0.3,7.7,0.7,15.5,0.7,23.2c0,4.8,0.9,9.7-0.9,14.5c-0.8,2.1-0.1,4.9,0.5,7.3
	c3.1,12.9,8.7,24.9,13.8,37.1c4.1,9.8,8.4,19.4,12.8,29.1c4.4,9.7,8.8,19.3,13.3,28.9c0.2,0.5,0.6,0.9,1,1.4c0.2,0,0.4-0.1,0.5-0.1
	c0.1-0.7,0.2-1.4,0.2-2c0.3-0.2,0.8-0.5,1-0.4c1.1,0.8,2.1,1.6,3.6,2.8c-1.7,1.5-2.9,2.6-4.1,3.6c-0.3-0.7-0.5-1.4-0.9-2
	c-0.2-0.3-0.7-0.4-1-0.6c-0.1,0.4-0.4,0.8-0.3,1.1c0.2,0.8,0.7,1.6,0.9,2.4C264.5,754.2,265.1,754.2,266,753.7L266,753.7z"/>
<path class="st1" d="M56.2,274.8c0-0.1-0.1-0.2-0.1-0.2c0,0,0.1-0.1,0.1-0.1c0-0.4,0.1-0.7,0.1-1.1c-0.8-9.4-1.5-18.7-2.4-28.1
	c-0.6-5.6-1.5-11.2-2.2-16.8c-0.1-0.5-0.2-1-0.3-1.5c-0.8-4-1.6-8-2.4-12c-0.1-0.2-0.2-0.5-0.2-0.7c0-0.2-0.1-0.5-0.2-0.7
	c-0.1-0.3-0.2-0.5-0.3-0.8c-0.2-0.5-0.4-1.1-0.6-1.6c-0.2-0.5-0.3-1.1-0.5-1.6c-0.1-0.2-0.1-0.4-0.2-0.6c-0.2-0.4-0.3-0.8-0.5-1.2
	c-0.2-0.7-0.4-1.4-0.7-2.2c0.7-0.5,1.4-1,2.2-1.4c5.9-2.9,11.6-6.4,17.8-8.6c9.8-3.6,19.8-6.8,29.9-9.6c19.3-5.3,39-8.6,59-9.1
	c16.7-0.4,33,1.7,48.8,7.3c7.1,2.5,14,5.5,21,8.4c1,0.4,1.7,1.7,2.6,2.4c1.4,1.1,2.9,2.1,4.4,3.2c0.2,1.2,0.4,2.5,0.6,3.7
	c0.1,0.2,0.1,0.5,0.1,0.8c0.1,0.5,0.2,1,0.2,1.5c0,0.2,0.1,0.5,0.1,0.8c0.1,0.5,0.2,1,0.2,1.5c0,0.2,0.1,0.5,0.1,0.8
	c0.2,1.1,0.4,2.2,0.6,3.4c0.1,0.3,0.1,0.5,0.2,0.8l0.2,1.5c0.1,0.2,0.1,0.5,0.1,0.8c1.7,8,3.4,16,5.1,24c0.1,0.3,0.1,0.5,0.1,0.8
	c0.1,0.2,0.2,0.5,0.2,0.7l0.1,0.8c0,0.2,0.1,0.5,0.1,0.7c0.2,0.6,0.4,1.3,0.7,1.9c0.1,0.2,0.2,0.5,0.2,0.7c0.3,1,0.6,2,0.9,3
	c0.1,0.2,0.2,0.5,0.2,0.7c0.2,0.6,0.4,1.2,0.5,1.9c0,0.3,0.1,0.5,0.1,0.8c0.1,0.1,0.2,0.2,0.3,0.4c0,0.3,0.1,0.5,0.1,0.8
	c0.1,0.1,0.2,0.2,0.3,0.4c0,0.3,0.1,0.5,0.1,0.8c0.1,0.1,0.2,0.2,0.3,0.4c0,0.4,0.1,0.8,0.1,1.1c0.1,0.1,0.2,0.2,0.3,0.4
	c0,0.3,0.1,0.5,0.1,0.8c0.1,0.1,0.2,0.2,0.3,0.4c0,0.2,0.1,0.5,0.1,0.7l1,2.6c0.3,0.9,0.6,1.8,0.9,2.6c0.2,0.5,0.4,1,0.6,1.5
	c0.1,0.5,0.3,1,0.5,1.6c0.1,0.1,0.2,0.2,0.3,0.3c0,0.3,0.1,0.5,0.1,0.8c0.1,0.1,0.2,0.2,0.2,0.3c0.2,0.5,0.3,1,0.5,1.6
	c0.1,0.1,0.2,0.2,0.3,0.3c0.2,0.5,0.3,1,0.5,1.6c0.1,0.1,0.2,0.2,0.3,0.3c0.2,0.5,0.3,1,0.5,1.5c0.1,0.1,0.2,0.2,0.3,0.4
	c0.2,0.5,0.3,1,0.5,1.5c0.1,0.1,0.2,0.2,0.3,0.3c0.1,0.3,0.3,0.5,0.4,0.8c0.1,0.4,0.2,0.7,0.4,1.1c0.2,0.5,0.5,1,0.7,1.5
	c0.1,0.4,0.2,0.7,0.4,1.1l0.4,0.8c0.2,0.6,0.5,1.2,0.7,1.9c0,0.1,0.1,0.2,0,0.3c-0.4,1.1-0.9,2.1-1.2,3.2c-0.3,1.2-0.3,2.7-2,2.6
	c-2.3-0.2-4.7-0.7-7-0.9c-1.3-0.1-2.9-0.4-3.8,0.2c-2.1,1.6-3.8,3.7-5.8,5.7c0.7,0.4,1.3,0.6,1.4,1c0.3,0.7,0.5,1.6,0.4,2.4
	c0,0.3-0.8,0.9-1.2,0.9c-1.4,0-2.9,0-4.3-0.2c-2.6-0.5-4.5,0.7-6.4,2.1c-2.3,1.8-4.7,3.8-7.8,3.5c-4.1-0.5-8.1-1.4-12.1-2
	c-2.1-0.3-4.3-0.6-6.2-0.1c-3.7,0.9-7.1,0.9-10.9,0c-5.1-1.2-10.4-1.2-15.7-1.6c-2.2-0.2-4.5-0.2-6.7-0.3c-3.5-0.1-7.1-0.3-10.6-0.4
	c-2.8-0.1-5.7,0-8.5-0.1c-6-0.2-11.9-0.5-17.9-0.6c-2.7-0.1-5.3,0.2-8,0.3c-1.5,0.1-3,0.1-4.4,0.4c-2.1,0.3-4.2,1.1-6.4,1
	c-2.3,0-4.5-0.9-6.8-1.1c-2.7-0.3-5.5-0.7-8.2-0.5c-3.9,0.2-7.7,0.9-11.6,1.4c-3.9,0.5-7.3-1.2-10.4-3.1c-3.5-2.2-7.2-3.4-11.3-2.9
	c-0.5,0.1-1.1-0.3-1.6-0.5l0.1-0.5c0.9-0.1,1.8-0.2,2.6-0.3c0.1-0.2,0.2-0.4,0.2-0.6c-1.7-1-3.3-2-5-3c-0.3-1.9-0.5-3.9-0.8-5.8
	c0-0.1-0.1-0.2-0.1-0.2c0,0,0.1-0.1,0.1-0.1C56.5,278.1,56.3,276.5,56.2,274.8L56.2,274.8z"/>
<path class="st2" d="M130.8,31c1-0.9,2-1.9,3-2.9c-0.5-0.6-0.9-1.2-1.6-2c2.1-1.7,4.2-3.4,6.6-5.4c0.5,1.3,0.8,2.1,1.1,2.8
	c1,1.9,1.8,3.8,2.9,5.5c3.3,5.2,6.9,10.3,9.9,15.6c5.1,8.9,8.3,18.6,9,28.9c0.5,7.4,0.2,14.8,0,22.2c-0.1,2.9-0.9,5.9-1.4,8.8
	c-2.1-0.1-4.2-0.3-6.3-0.4c-0.2-4.5-0.2-9.1-0.8-13.6c-1-8.7-3.9-16.8-6.9-25c-1.5-4.1-3.2-8.1-6.9-10.9c-0.5-0.3-1.5-0.8-1.7-0.6
	c-1.5,1.6-3.6,3.1-4.3,5c-4.1,11.3-6,23.1-6.3,35.1c-0.1,3.3-0.1,6.6-0.1,9.9l-14.1,2.7c-1.3-11.1-1.6-22.2-0.4-33.2
	c1.4-13.5,6.3-25.7,14.2-36.8C128.3,35,129.5,33,130.8,31L130.8,31z"/>
<path class="st3" d="M41.6,754.5c0.2,0.1,0.6,0.2,0.6,0.3c0,3.6,2.8,5.3,5.2,7c9.5,6.5,19.8,11.3,30.9,14.4c5.6,1.6,11.2,3,16.8,3.9
	c5.1,0.8,10.3,1,15.4,0.9c8.2-0.1,16.4-0.4,24.6-1.2c9.4-0.9,18.7-2.4,28-3.6c18.5-2.5,36.7-6,54.8-10.5c11.1-2.7,22.2-5.3,33.3-8.2
	c3.1-0.8,6-2.2,8.9-3.4c0.2-0.1,0.5-0.1,0.7-0.1c0.6,0,1.3,0.1,1.9,0.1c-0.3,0.6-0.6,1.2-0.9,1.8c-0.4,0-0.9,0-1.3,0.1
	c-6.7,1.9-13.4,3.9-20.1,5.6c-19.5,5-39.1,9.8-59,13.1c-22.5,3.7-45.1,7.2-68,7.8c-22.8,0.6-43.8-5.7-63.2-17.2
	c-2.8-1.6-5.3-3.8-7.7-5.9C41.2,758.2,40.5,756.4,41.6,754.5L41.6,754.5z"/>
<path class="st3" d="M264.9,745.9c-0.1,0.7-0.2,1.4-0.2,2c-0.2,0-0.4,0.1-0.5,0.1c-0.3-0.5-0.7-0.9-1-1.4
	c-4.5-9.6-8.9-19.2-13.3-28.9c-4.4-9.7-8.7-19.3-12.8-29.1c-5.1-12.2-10.7-24.2-13.8-37.1c-0.6-2.4-1.2-5.2-0.5-7.3
	c1.7-4.9,0.8-9.7,0.9-14.5c0.1-7.7-0.4-15.4-0.7-23.2c-0.2-5.6-0.5-11.2-0.7-16.8c0-0.5-0.2-1.1-0.3-1.6
	c-0.1-10.8-0.3-21.7-0.4-32.5c0-5,0.1-10.1,0.2-15.1c0-2.5,0.1-5.1,0.1-7.6c0-5.1,0-10.2,0-15.2c0.1-4,0.2-8,0.4-12
	c0.2-4.3,0.4-8.5,0.6-12.8c0.3-6.1,0.6-12.2,0.8-18.4c0-1.3,0-2.6,0.1-3.9c0.3-4.8,0.7-9.6,1-14.5c0-0.7,0.1-1.4,0.1-2
	c0.2-3.1,0.5-6.2,0.7-9.4c1.6,0.5,0.4,1.4,0.4,2.1c-0.1,4.8-0.4,9.6-0.6,14.4c-0.1,1.4-0.4,2.8-0.4,4.2c0,2,0.1,4,0.2,6
	c0,0.2,0,0.5,0,0.7c-0.2,0.1-0.5,0.3-0.5,0.4c0,2.1,0.1,4.3,0.2,6.4c0,0.2,0,0.5,0,0.7c-0.2,0.2-0.6,0.4-0.6,0.6
	c0,2.1,0.1,4.2,0.2,6.2c0,0.5,0,1-0.1,1.4c-0.2,0.1-0.5,0.3-0.5,0.4c0,2.1,0.1,4.3,0.2,6.4c0,0.5,0,1,0,1.4
	c-0.2,0.1-0.5,0.3-0.5,0.4c0,2.6,0.1,5.3,0.2,7.9c0,0.6,0,1.2,0,1.8c-0.2,0.6-0.6,1.1-0.6,1.7c-0.2,3.8-0.3,7.7-0.4,11.5
	c0,0.6,0.4,1.3,0.6,1.9c-0.1,8.4-0.2,16.7-0.3,25.1c0,0.4,0,0.7,0,1.1c0.1,10.7,0.2,21.5,0.3,32.2c-0.9,1.1-0.9,2.1,0.1,3.2
	c0,0.2,0,0.5,0,0.7c0,0.6,0,1.2,0,1.8c0.1,2.7,0.2,5.5,0.3,8.2c-1.3,1.2,0.1,2.3,0.1,3.5c0.1,1.8,0.2,3.7,0.3,5.5
	c-1.2,1.3,0.1,2.5,0.1,3.8l0.3,5.5c-1.3,1.2,0.1,2.3,0.1,3.5c0.1,2.3,0.2,4.7,0.3,7.1c-1.2,1.9-0.6,3.8,0.1,5.7c0,2.7,0,5.4,0,8.2
	c-0.9,1-1,4.5-0.1,6.2c-1.8,2.7-0.8,5.6-0.4,8.4c0.2,1.2,0.4,2.4,0.6,3.5c2.1,6,4,12.1,6.4,18c4.4,11,9.1,21.9,13.8,32.8
	c4.2,9.7,8.7,19.2,13.1,28.8c1.4,3,2.9,6,4.4,9c0.4,0.8,0.7,1.5,1.2,2.2C264,745.8,264.6,745.8,264.9,745.9L264.9,745.9z"/>
<path class="st4" d="M146.1,142.8c0.5,0.4,0.9,0.8,1.6,1.4c-1.9,1.8-3.6,3.7-5.6,5.3c-0.4,0.4-1.6-0.2-2.4-0.3
	c-0.3-0.9-0.6-1.8-1.8-1c-0.2,0.1-0.6-0.1-0.8-0.2c-1.8-1.8-3.7-3.4-4.2-6.2c-0.8-3.9-1.9-7.8-2.9-11.7c-0.4-3-0.8-6-1.2-9
	c0.9,0,1.7,0,2.6,0c0.7,3.3,1.3,6.5,2,9.8l2.6,10.4c0.1,0,0.3-0.1,0.4-0.1c-0.8-3.4-1.6-6.9-2.4-10.3c-0.2-1.4-0.4-2.8-0.6-4.2
	c0.6,0,1.2,0,1.9-0.1c4.2-0.3,8.4-0.7,12.5-1c-0.4,1.7-0.7,3.4-1.1,5.1c-0.9,3.6-1.9,7.1-2.8,10.6c-1,1.9-2,3.7-3.1,5.8
	c2.3-1,3.9-2.5,4.8-4.4C145.8,142.9,146,142.9,146.1,142.8L146.1,142.8z"/>
<path class="st3" d="M47.6,614.9c-0.3,5.9-0.5,11.8-0.8,17.7c-0.2,5.3-0.5,10.7-0.7,16c-0.3,7.1-0.5,14.2-0.8,21.3
	c-0.1,4.2-0.3,8.5-0.4,12.7c-0.1,5.2-0.3,10.5-0.4,15.7c-0.1,6.1-0.2,12.2-0.4,18.3c-0.1,5.2-0.2,10.3-0.4,15.5
	c-0.2,6.6-0.5,13.2-0.7,19.8c0,1,0.1,2.1-1.4,2.1c-0.1-0.3-0.2-0.6-0.3-1c0.1-0.7,0.2-1.3,0.4-2c0-1,0.1-2,0.2-3
	c0.1-1.2,0.1-2.5,0.2-3.8c0-2.1,0.1-4.2,0.2-6.4c0.1-2,0.2-4,0.2-6c0-2.8,0.1-5.5,0.2-8.3c0.1-2.4,0.2-4.8,0.2-7.1
	c0-3.4,0.1-6.8,0.2-10.1c0.1-2.9,0.2-5.8,0.2-8.6c0-2.9,0.1-5.8,0.2-8.6c0.1-2.2,0.2-4.5,0.2-6.8c0-2.4,0.1-4.8,0.1-7.1l0.2-5.6
	c0-2,0.1-4,0.2-6c0.1-1.6,0.2-3.2,0.2-4.9c0-1.8,0.1-3.5,0.2-5.3c0.1-1.4,0.2-2.8,0.2-4.1c0-1.6,0.1-3.2,0.2-4.9
	c0.1-1.2,0.2-2.5,0.2-3.8l0.2-4.5c0.1-1.1,0.1-2.2,0.2-3.4c0-1.4,0.1-2.8,0.2-4.1c0.1-1.1,0.2-2.2,0.2-3.4c0-1.2,0.1-2.5,0.2-3.8
	l0.2-3.4c0-1.1,0.1-2.2,0.1-3.4c0.1-1,0.2-2,0.2-3c0-1.1,0.1-2.2,0.1-3.4c0.1-1,0.2-2,0.2-3c0-1.1,0.1-2.2,0.2-3.4
	c0.1-1,0.2-2,0.2-3c0-1,0.1-2,0.1-3c0.1-1,0.2-2,0.2-3c0.1-1.1,0.1-2.2,0.2-3.4c0.1-1,0.1-2,0.2-3c0-1,0.1-2,0.2-3
	c0.1-0.9,0.2-1.8,0.2-2.6c0-1.1,0.1-2.2,0.2-3.4c0.1-0.9,0.2-1.8,0.2-2.6c0-1,0.1-2,0.1-3c0.1-0.9,0.2-1.8,0.2-2.6
	c0-1.1,0.1-2.2,0.2-3.4c0.1-0.9,0.1-1.8,0.2-2.6l0.2-3c0.1-0.9,0.2-1.8,0.2-2.6c0-1,0.1-2,0.2-3c0.1-0.9,0.2-1.8,0.2-2.6
	c0-1,0.1-2,0.2-3c0.1-0.9,0.1-1.8,0.2-2.6c0.1-1.1,0.1-2.2,0.2-3.4c0.1-0.9,0.1-1.8,0.2-2.6c0-1,0.1-2,0.2-3
	c0.1-0.9,0.1-1.8,0.2-2.6c0.1-1.2,0.1-2.5,0.2-3.8l0.2-2.6c0-1,0.1-2,0.2-3l0.2-3c0-1,0.1-2,0.2-3c0.1-1,0.2-2,0.2-3
	c0-1,0.1-2,0.2-3c0.1-1,0.2-2,0.2-3c0-1,0.1-2,0.2-3c0.1-1,0.2-2,0.2-3c0-1.1,0.1-2.2,0.2-3.4c0.1-1,0.2-2,0.2-3c0-1,0.1-2,0.1-3
	l0.5-1.9c0.2,0.2,0.5,0.5,0.7,0.8c0,1.7,0,3.4,0,5.1c-0.2,0.2-0.6,0.4-0.7,0.6c-0.3,5.5-0.5,10.9-0.8,16.4
	c-0.2,4.8-0.5,9.5-0.7,14.2c-0.5,8-1,16-1.5,24c-0.3,3.5-0.6,6.9-0.8,10.4c-0.4,7.1-0.8,14.1-1.2,21.2c-0.1,2.5-0.3,5.1-0.4,7.6
	C48.6,600.7,48.1,607.8,47.6,614.9L47.6,614.9z"/>
<path class="st5" d="M231.6,198.1c-1.5-1.1-3-2.1-4.4-3.2c-0.9-0.7-1.6-2-2.6-2.4c-6.9-2.9-13.9-5.9-21-8.4
	c-15.8-5.6-32.1-7.7-48.8-7.3c-20.1,0.5-39.7,3.8-59,9.1c-10.1,2.8-20.1,5.9-29.9,9.6c-6.2,2.3-11.9,5.7-17.8,8.6
	c-0.8,0.4-1.5,0.9-2.2,1.4c0.2,0.8,0.5,1.5,0.7,2.2c-0.2,0.2-0.4,0.3-0.6,0.5c-0.2,0-0.4,0-0.6,0c-0.2-0.6-0.3-1.2-0.5-1.9
	c0.2-0.8,0.5-1.5,0.7-2.3c4.7-2.4,9.3-4.8,14-7.2c0.6-0.4,1.1-0.8,1.7-1.2c2-0.8,4.1-1.6,6.1-2.4c0.2-0.1,0.5-0.2,0.7-0.3
	c1-0.3,2.1-0.7,3.1-1c2.6-0.9,5.2-1.8,7.8-2.7c1-0.3,2-0.6,3-0.9c0.6-0.2,1.2-0.4,1.9-0.6c0.6-0.2,1.2-0.4,1.9-0.5
	c0.2-0.1,0.5-0.2,0.8-0.2c0.6-0.2,1.2-0.3,1.9-0.5c0.2-0.1,0.5-0.2,0.8-0.2c0.2-0.1,0.5-0.1,0.7-0.2c0.6-0.2,1.3-0.4,1.9-0.6
	c0.2-0.1,0.5-0.1,0.7-0.2c0.2-0.1,0.5-0.2,0.8-0.2c0.6-0.2,1.2-0.3,1.9-0.5c0.2-0.1,0.5-0.1,0.8-0.2c0.2-0.1,0.5-0.1,0.8-0.2
	c0.2-0.1,0.5-0.1,0.8-0.2c0.2-0.1,0.5-0.1,0.8-0.1c0.2-0.1,0.5-0.1,0.8-0.2c0.2-0.1,0.5-0.1,0.7-0.1c0.2-0.1,0.5-0.1,0.8-0.2
	c0.2-0.1,0.5-0.1,0.8-0.1c0.2-0.1,0.5-0.1,0.8-0.2c0.2-0.1,0.5-0.1,0.8-0.1c0.2-0.1,0.5-0.1,0.8-0.2c0.2-0.1,0.5-0.1,0.8-0.2
	c0.2-0.1,0.5-0.1,0.8-0.2c0.4-0.1,0.7-0.2,1.1-0.2c0.2-0.1,0.5-0.1,0.8-0.2c0.2,0,0.5-0.1,0.8-0.1c0.2-0.1,0.5-0.1,0.8-0.2
	c0.4-0.1,0.7-0.1,1.1-0.2c0.2-0.1,0.5-0.1,0.8-0.2c0.4-0.1,0.7-0.1,1.1-0.2c0.3-0.1,0.5-0.1,0.8-0.2c0.2,0,0.5-0.1,0.8-0.1
	c0.4-0.1,0.8-0.2,1.1-0.3c0.2,0,0.5-0.1,0.8-0.1c0.2-0.1,0.5-0.1,0.8-0.1c1.8-0.3,3.5-0.6,5.2-1c0.2-0.1,0.5-0.1,0.8-0.1
	c0.5-0.1,1-0.2,1.5-0.2c0.2-0.1,0.5-0.1,0.8-0.1c0.5-0.1,1-0.1,1.5-0.2c0.2,0,0.5-0.1,0.8-0.1c0.6-0.1,1.2-0.2,1.9-0.3
	c0.2,0,0.5-0.1,0.8-0.1c0.6-0.1,1.2-0.2,1.9-0.2c0.2,0,0.5-0.1,0.8-0.1c0.7-0.1,1.5-0.2,2.2-0.3c0.3,0,0.5-0.1,0.8-0.1
	c0.8-0.1,1.5-0.2,2.2-0.2c0.4-0.1,0.8-0.1,1.1-0.1c0.6-0.1,1.2-0.2,1.8-0.3c0.1,0,0.3,0,0.4,0c0.1,0,0.2,0,0.3,0.1
	c0.4,0,0.8-0.1,1.1-0.1c1-0.1,2-0.2,3-0.2c0.5,0,1-0.1,1.5-0.1c1.6-0.1,3.2-0.2,4.9-0.3c1.5-0.1,3-0.1,4.5-0.2c2.2,0,4.5,0,6.7,0
	c1.5,0.1,3,0.1,4.5,0.2c1.4,0.1,2.7,0.2,4.1,0.2c0.5,0,1,0.1,1.5,0.1c0.9,0.1,1.7,0.2,2.6,0.2c0.4,0.1,0.8,0.1,1.1,0.1
	c0.6,0.1,1.2,0.1,1.9,0.2c0.4,0.1,0.8,0.1,1.1,0.2c0.6,0.1,1.2,0.2,1.9,0.2c0.2,0,0.5,0.1,0.8,0.1c0.5,0.1,1,0.1,1.5,0.2
	c0.2,0.1,0.5,0.1,0.8,0.1c1.6,0.3,3.2,0.6,4.9,0.9c0.2,0.1,0.5,0.1,0.8,0.2c0.9,0.2,1.7,0.4,2.6,0.6c0.2,0.1,0.5,0.1,0.8,0.2
	c0.2,0.1,0.5,0.1,0.7,0.2c0.2,0.1,0.5,0.1,0.8,0.2c2.8,0.8,5.5,1.6,8.2,2.4c0.2,0.1,0.5,0.2,0.8,0.3c2,0.7,4,1.3,6,2
	c0.3,0.1,0.7,0.3,1,0.4c1,0.4,2.1,0.7,3.1,1.1c0.3,0.1,0.7,0.3,1,0.4c1.5,0.6,3.1,1.2,4.6,1.8c0.3,0.2,0.7,0.3,1,0.5
	c2.9,1.6,5.9,3.3,8.8,4.9c0.8,1.4,1.1,3,3,3.4C231.6,197.4,231.6,197.7,231.6,198.1L231.6,198.1z"/>
<path class="st6" d="M146.1,142.8c-0.1,0-0.3,0-0.4,0.1c-0.2-0.4-0.4-0.7-0.6-1.1c1.8-3.1,3.5-6.2,5.3-9.3c0.1-0.4,0.3-0.7,0.5-1.1
	l0,0c0.1-0.1,0.3-0.2,0.4-0.4c4.2-8.4,7.4-17.1,9.2-26.3c0.5-2.9,1.3-5.9,1.4-8.8c0.2-7.4,0.5-14.8,0-22.2
	c-0.7-10.3-3.9-19.9-9-28.9c-3-5.4-6.7-10.4-9.9-15.6c-1.1-1.8-2-3.7-2.9-5.5c1.5,2.1,2.9,4.3,4.4,6.4c7.6,10.4,14.2,21.4,16.9,34.2
	c5.7,26.7,1.9,51.8-13,75C147.6,140.4,146.8,141.6,146.1,142.8L146.1,142.8z"/>
<path class="st7" d="M130.1,130.2c1,3.9,2.1,7.8,2.9,11.7c0.5,2.8,2.4,4.4,4.2,6.2c0.2,0.2,0.6,0.3,0.8,0.2c1.2-0.8,1.5,0.1,1.8,1
	c-1.4,1.3-2.8,2.5-4.1,3.8c-0.8-0.7-1.5-1.4-2.3-2.1l-1.4-1c-0.5-0.6-1-1.1-1.4-1.7c-3.7-3.9-6.7-8.3-9.1-13.1
	c-0.4-0.8-0.7-1.5-1.1-2.3c0.4-0.4,0.8-1,1.2-1.1C124.4,131.2,127.2,130.7,130.1,130.2L130.1,130.2z"/>
<path class="st8" d="M270.7,321.2c0.1,0.6,0.1,1.2,0.2,1.9c0.1,1,0.2,2,0.2,3c0,2.7,0,5.5,0,8.2c-0.1,0.9-0.2,1.8-0.3,2.6
	c0,0.5-0.1,1-0.1,1.5c-0.1,0.4-0.1,0.8-0.2,1.2c0,0.4-0.1,0.7-0.1,1.1c-0.1,0.4-0.2,0.8-0.3,1.1c0,0.2-0.1,0.5-0.1,0.7
	c-0.1,0.3-0.1,0.5-0.2,0.8c-0.1,0.2-0.1,0.5-0.2,0.7c-0.4,1.1-0.7,2.2-1.1,3.3c-0.4,0.9-0.7,1.8-1.1,2.7c-0.5,0.9-0.9,1.8-1.4,2.6
	c-0.1,0.2-0.3,0.5-0.4,0.8c-0.2,0.4-0.5,0.7-0.7,1.1c-0.1,0.1-0.2,0.3-0.3,0.5c-0.2,0.3-0.5,0.6-0.7,0.9c-0.5,0.6-1.1,1.1-1.7,1.7
	c-0.3,0.3-0.7,0.5-1,0.8c-0.4,0.2-0.8,0.5-1.1,0.7c-0.4,0.2-0.8,0.4-1.1,0.6c-1,0.3-2,0.6-3,0.9c-1.6,0-3.2,0-4.9,0
	c-0.2,0-0.5-0.1-0.7-0.1c-0.3-0.1-0.5-0.2-0.8-0.2c-0.2,0-0.5-0.1-0.7-0.1c-0.7-0.3-1.4-0.5-2.1-0.8c-2.2-1.3-4.4-2.6-6.5-3.9
	c-0.5-0.4-1-0.8-1.4-1.1c-0.3-0.2-0.5-0.5-0.8-0.7c-1.1-1.1-2.2-2.2-3.4-3.4c-0.2-0.3-0.5-0.5-0.7-0.8c-0.4-0.5-0.8-1-1.1-1.4
	c-1.1-1.9-2.2-3.8-3.3-5.6c-0.1-0.2-0.2-0.5-0.3-0.8c-0.1-0.1-0.1-0.2-0.1-0.3c-0.4-1.6-0.9-3.3-1.4-5c0-0.4-0.1-0.7-0.1-1.1
	c0-0.7,0.1-1.4,0.2-2c0.4,0.5,0.8,1.1,1.1,1.7c0.1,0.2,0.1,0.6,0.1,0.9c0.6,3.1,1.1,6.3,3.2,9c2.1,2.5,4.1,4.9,6.2,7.4
	c3.3,3.3,7.1,5.8,11.7,7c5.2,1.4,9.6,0,13-4.2c2.8-3.5,4.4-7.5,5.4-11.8c0.5-4.3,1-8.5,1.4-12.8c0-1.2,0-2.5,0-3.8
	c-0.1-0.4-0.2-0.8-0.3-1.1c0.1-4.6-0.8-9-2.2-13.3c-1.7-4.7-3.3-9.4-5-14c0.4,0,0.9,0,1.3,0c0.2,0.5,0.4,1.1,0.7,1.6
	c0.1,0.3,0.3,0.7,0.4,1c0.1,0.4,0.3,0.7,0.4,1.1c0.1,0.2,0.2,0.5,0.3,0.8c0.1,0.4,0.3,0.7,0.4,1.1c0.1,0.2,0.2,0.5,0.3,0.8l0.8,2.2
	c0.5,1.5,0.9,3,1.4,4.5c0.2,0.6,0.3,1.2,0.5,1.9c0.1,0.3,0.2,0.5,0.3,0.8c0,0.2,0.1,0.5,0.1,0.7c0.1,0.3,0.2,0.5,0.2,0.8
	c0,0.2,0.1,0.5,0.1,0.7c0.1,0.3,0.1,0.5,0.2,0.8c0.1,0.4,0.1,0.7,0.2,1.1c0,0.3,0.1,0.5,0.2,0.8c0.1,0.5,0.1,1,0.2,1.5
	C270.6,320.5,270.6,320.8,270.7,321.2L270.7,321.2z"/>
<path class="st9" d="M120.3,132.8c0.4,0.8,0.7,1.5,1.1,2.3c2.4,4.8,5.4,9.2,9.1,13.1c-0.5-0.1-1.1-0.1-1.4-0.4
	c-1.6-1.7-3.2-3.4-4.5-5.4c-4.5-6.8-7.8-14-10-21.8c-2-7.1-3.2-14.3-3.2-21.7c0-9.3-0.1-18.7,0.8-28c1-10.1,4.7-19.6,10-28.3
	c1.2-2,2.4-4.1,3.6-6.2l0.1,0.1l-0.1,0c0.1-0.1,0.2-0.3,0.3-0.4l0.1,0.1l-0.1-0.1c0.3-0.3,0.6-0.7,0.8-1v0c0.1-0.1,0.2-0.3,0.3-0.4
	l0.1,0.1l-0.1-0.1c0.1-0.1,0.2-0.3,0.3-0.4l0.1,0.1c0,0-0.1-0.1-0.1-0.1c0.1-0.1,0.2-0.3,0.3-0.4l0.1,0l-0.1-0.1
	c0.2-0.2,0.4-0.4,0.5-0.6l0,0c0.1-0.1,0.2-0.3,0.4-0.4l0,0c0.1-0.1,0.3-0.3,0.4-0.4l0,0c0.1-0.1,0.3-0.3,0.4-0.4l0,0
	c0.1-0.1,0.3-0.3,0.4-0.4l0,0c0.1-0.1,0.3-0.2,0.4-0.3c0.1-0.1,0.2-0.1,0.3-0.1c-1.3,2-2.5,4-3.8,5.9c-7.9,11-12.8,23.2-14.2,36.8
	c-1.1,11.1-0.9,22.2,0.4,33.2c1.4,6.5,2.7,13.1,4.2,19.6C118,128.7,119.4,130.7,120.3,132.8L120.3,132.8z"/>
<path class="st10" d="M125.8,36.3c-1.2,2.1-2.4,4.2-3.6,6.2c-5.3,8.7-9,18.2-10,28.3c-0.9,9.3-0.8,18.7-0.8,28
	c0,7.3,1.3,14.6,3.2,21.7c2.2,7.8,5.5,15.1,10,21.8c1.3,1.9,3,3.6,4.5,5.4c0.3,0.3,0.9,0.3,1.4,0.4c0.5,0.6,1,1.1,1.4,1.7
	c0,0.3,0,0.6,0.1,0.9c-0.1,0.1-0.2,0.1-0.2,0.2c-3.8-2.6-6.6-6.1-9-9.9c-5.1-8.1-8.4-17-10.2-26.3c-2.4-12-2.7-24.2-1.9-36.4
	c0.9-14.5,5.2-27.9,13.5-39.9C124.6,37.7,125.2,37,125.8,36.3L125.8,36.3z"/>
<path class="st0" d="M55.1,494.1c-0.2-0.2-0.5-0.5-0.7-0.8c-0.1-0.5-0.2-1-0.3-1.5c0-1,0.1-2,0.1-3c0.1-1.1,0.2-2.3,0.2-3.4
	c0-1.1,0.1-2.2,0.2-3.4c0.1-1,0.1-2,0.2-3c0-1.2,0.1-2.5,0.1-3.7c0.1-1.1,0.2-2.3,0.2-3.4c0-1.1,0.1-2.2,0.1-3.3
	c0.1-1.3,0.2-2.5,0.2-3.8c0-1.2,0.1-2.5,0.1-3.7c0.1-1.3,0.2-2.5,0.2-3.8c0-1.2,0.1-2.5,0.1-3.7c0.1-1.5,0.2-3,0.2-4.5
	c0-1.2,0.1-2.5,0.1-3.7c0.1-1.6,0.2-3.3,0.2-4.9c0-1.4,0.1-2.7,0.1-4.1c0.1-1.9,0.2-3.8,0.3-5.7c0-1.5,0.1-3,0.1-4.5
	c0.1-2.6,0.2-5.3,0.3-7.9c0-2.1,0.1-4.2,0.1-6.3c0.2-0.8,0.4-1.6,0.5-2.4c0.2-1.5,0.4-3.1,0.6-4.6c0.1,0.3,0.2,0.6,0.4,0.9
	c-0.1,3.9-0.2,7.8-0.3,11.7c0,0-0.1,0.1-0.1,0.1c0,0.1,0,0.1,0.1,0.2l0.1,1.1c-0.2,4.5-0.4,9-0.6,13.6c-0.2,0.5-0.4,1-0.4,1.5
	c0,4.6,0,9.2,0,13.8c-0.2,5.1-0.5,10.2-0.7,15.4c-0.4,6.4-0.7,12.8-1.1,19.1C55.7,486.4,55.4,490.2,55.1,494.1L55.1,494.1z"/>
<path class="st0" d="M227.4,434.2l-0.1,0.1c0,0-0.1-0.1-0.1-0.1c-0.3,0.1-0.6,0.2-0.9,0.3c0.1-1.9,0.1-3.8,0.2-5.6
	c0.2-4.5,0.5-9,0.8-13.5c0-1.3-0.1-2.6,0-3.9c0.2-2.7,0.4-5.4,0.6-8.1c0.1-3.8,0.3-7.5,0.4-11.2c0.1-3.8,0.2-7.5,0.3-11.3
	c0-4.4,0.1-8.8,0.1-13.1c0-1.1,0.1-2.2,0.1-3.4c0.2,0,0.4,0,0.6,0c0,6.7,0,13.4,0,20.2c0,0.7,0.2,1.3,0.3,2c0,1.6-0.1,3.2-0.1,4.8
	c-0.1,2.4-0.2,4.8-0.3,7.2c0,1.1-0.1,2.2-0.1,3.3c-0.1,1.8-0.2,3.5-0.3,5.3c0,1-0.1,2-0.1,3c-0.1,1.4-0.2,2.8-0.3,4.2
	c0,1-0.1,2-0.1,3c-0.1,1.4-0.2,2.8-0.3,4.2c0,0.9-0.1,1.7-0.1,2.6c-0.1,1.3-0.2,2.5-0.3,3.8c-0.1,1-0.1,2-0.1,3
	C227.5,431.8,227.5,433,227.4,434.2L227.4,434.2z"/>
<path class="st8" d="M262.6,743.2c-1.5-3-3-6-4.4-9c-4.4-9.6-8.9-19.2-13.1-28.8c-4.7-10.9-9.4-21.8-13.8-32.8
	c-2.4-5.9-4.3-12-6.4-18h0.2h0.2c5,15.4,11.6,30.3,18.1,45.1c6,13.7,12.3,27.3,18.5,41C262.2,741.5,262.4,742.4,262.6,743.2
	L262.6,743.2z"/>
<path class="st6" d="M57.8,403c0-3,0.1-6,0.1-9c0.2-0.5,0.5-1,0.5-1.5c0-5.7,0-11.5,0-17.2c0-0.4-0.2-0.8-0.3-1.2
	c0-5.5,0-11.1,0-16.7c0.1-0.7,0.3-1.5,0.3-2.2c0-4.7,0-9.5,0-14.2c0.2,0,0.4,0,0.7,0c0.1,3.1,0.2,6.2,0.3,9.4c0,6,0.1,12,0.1,18
	c0,4.6-0.1,9.2-0.1,13.9c0,3.9-0.1,7.8-0.2,11.6c0,1.2,0,2.3-0.1,3.5c-0.2,2.5-0.3,5-0.5,7.5L57.8,403L57.8,403z"/>
<path class="st8" d="M59.1,341c-0.2,0-0.4,0-0.7,0c-0.2-0.8-0.4-1.5-0.5-2.3c0-3.4-0.1-6.7-0.1-10.1c0.1-2.8,0.1-5.5,0.2-8.3
	c0-0.1-0.3-0.2-0.4-0.3c0-1.7-0.1-3.5-0.1-5.2c-0.1-2-0.2-4-0.3-6c0-1.2-0.1-2.5-0.1-3.7c-0.1-1.8-0.2-3.5-0.3-5.3c0-1-0.1-2-0.1-3
	c-0.1-1.4-0.2-2.8-0.3-4.1c0-0.9-0.1-1.7-0.1-2.6c-0.1-1.4-0.2-2.8-0.3-4.1c0-0.7-0.1-1.5-0.1-2.2c0-0.8-0.1-1.5-0.2-2.3
	c0-0.6-0.5-1.6,0.8-1.3c0.3,1.9,0.5,3.9,0.8,5.8c0,0.8,0,1.5,0,2.2c0,0.6,0.1,1.3,0.1,1.9c0.1,1.6,0.2,3.2,0.2,4.8
	c0,0.5,0,1,0.1,1.5c0.1,2,0.2,4,0.3,6c0,0.6,0.1,1.3,0.1,1.9c0.1,2.5,0.2,5,0.3,7.5c0,0.8,0,1.5,0.1,2.3c0.1,3.6,0.2,7.2,0.3,10.9
	c0,0.5,0,1,0,1.5c0.1,0.5,0.2,1,0.2,1.5C59.1,332.3,59.1,336.7,59.1,341L59.1,341z"/>
<path class="st8" d="M231.6,198.1c0-0.4,0-0.8,0-1.1c0.1-0.4,0.3-0.8,0.4-1.1c0.2,0.5,0.4,1,0.7,1.5c0.1,0.4,0.1,0.8,0.2,1.1
	c0.1,0.4,0.1,0.7,0.1,1.1c0.1,0.4,0.2,0.8,0.2,1.1c0.1,0.4,0.1,0.7,0.2,1.1c0.1,0.4,0.2,0.8,0.2,1.1c0.1,0.4,0.1,0.7,0.1,1.1
	c0.1,0.4,0.2,0.8,0.2,1.1c0.1,0.4,0.1,0.7,0.1,1.1c0.1,0.4,0.2,0.8,0.2,1.1c0,0.2,0.1,0.5,0.1,0.7c0.1,0.4,0.1,0.8,0.2,1.1
	c0.1,0.4,0.1,0.7,0.2,1.1c0.1,0.4,0.2,0.8,0.2,1.1c0.1,0.4,0.1,0.7,0.1,1.1c0.1,0.4,0.2,0.8,0.3,1.1c0,0.2,0.1,0.5,0.1,0.7
	c0.1,0.4,0.2,0.8,0.3,1.1c0,0.2,0.1,0.5,0.1,0.7c0.1,0.4,0.2,0.8,0.3,1.1c0,0.2,0.1,0.5,0.1,0.7c0.1,0.4,0.2,0.8,0.2,1.1
	c0,0.2,0.1,0.5,0.1,0.7c0.1,0.4,0.2,0.8,0.2,1.1c0.1,0.4,0.1,0.7,0.2,1.1c0.1,0.3,0.1,0.5,0.2,0.8c0,0.2,0.1,0.5,0.1,0.7
	c0.1,0.4,0.2,0.8,0.3,1.1c0,0.2,0.1,0.5,0.1,0.7c0.1,0.4,0.2,0.8,0.3,1.1c0,0.2,0.1,0.5,0.1,0.7c0.1,0.3,0.1,0.5,0.2,0.8
	c0.1,0.4,0.1,0.7,0.2,1.1c0.1,0.3,0.1,0.5,0.2,0.8c0,0.2,0.1,0.5,0.1,0.7c0.1,0.3,0.1,0.5,0.2,0.8c0.1,0.2,0.1,0.5,0.1,0.7
	c0.1,0.3,0.1,0.5,0.2,0.8c0.1,0.2,0.1,0.5,0.2,0.7c0.1,0.3,0.1,0.5,0.2,0.8c0.1,0.2,0.1,0.5,0.2,0.7c0.1,0.3,0.1,0.5,0.2,0.8
	c0.1,0.2,0.1,0.5,0.2,0.7c0.1,0.3,0.1,0.5,0.2,0.8c0.1,0.2,0.1,0.5,0.2,0.7c0.1,0.3,0.1,0.5,0.2,0.8c0.1,0.2,0.1,0.5,0.2,0.7
	c0.1,0.3,0.2,0.5,0.3,0.8c0.1,0.2,0.1,0.5,0.1,0.7c-0.1,0-0.2,0-0.3,0c-0.5-0.4-0.9-0.8-1.4-1.1c0-0.2-0.1-0.5-0.1-0.7
	c-0.1-0.3-0.1-0.5-0.1-0.8c-0.1-0.2-0.2-0.5-0.2-0.7c-0.1-0.3-0.1-0.5-0.1-0.8c-1.7-8-3.4-16-5.1-24c-0.1-0.2-0.1-0.5-0.1-0.8
	l-0.2-1.5c-0.1-0.3-0.1-0.5-0.2-0.8c-0.2-1.1-0.4-2.2-0.6-3.4c0-0.2-0.1-0.5-0.1-0.8c-0.1-0.5-0.2-1-0.2-1.5c0-0.2-0.1-0.5-0.1-0.8
	c-0.1-0.5-0.2-1-0.2-1.5c-0.1-0.2-0.1-0.5-0.1-0.8C232.1,200.6,231.9,199.3,231.6,198.1L231.6,198.1z"/>
<path class="st8" d="M51.6,228.5c0.8,5.6,1.7,11.2,2.2,16.8c0.9,9.4,1.7,18.7,2.4,28.1c0,0.4-0.1,0.7-0.1,1.1
	c-1.3,0.5-0.9-0.5-1-1.1c0-0.9-0.1-1.8-0.2-2.8c-0.1-0.7-0.2-1.4-0.2-2.1c0-0.8-0.1-1.6-0.1-2.4c-0.1-0.7-0.2-1.4-0.2-2.1
	c0-0.8-0.1-1.6-0.2-2.4c-0.1-0.7-0.2-1.4-0.2-2.1c-0.1-0.6-0.1-1.2-0.2-1.8c-0.1-0.8-0.1-1.6-0.2-2.4c-0.1-0.6-0.2-1.2-0.2-1.8
	c0-0.8-0.1-1.6-0.1-2.3c-0.1-0.6-0.2-1.2-0.2-1.8c0-0.7-0.1-1.3-0.1-2c0-0.7-0.1-1.3-0.2-2c-0.1-0.5-0.1-0.9-0.2-1.4
	c-0.1-0.6-0.2-1.2-0.3-1.8c0-0.5-0.1-1-0.2-1.5c-0.1-0.5-0.1-1-0.2-1.5c-0.1-0.5-0.1-1-0.2-1.5c-0.1-0.5-0.2-1-0.2-1.5
	c-0.1-0.5-0.1-1-0.2-1.5c-0.1-0.4-0.1-0.8-0.2-1.1c-0.1-0.5-0.1-1-0.2-1.5c-0.1-0.4-0.1-0.8-0.2-1.1c-0.1-0.5-0.1-1-0.2-1.5
	c0.1-0.2,0.2-0.5,0.3-0.7C51.2,228.8,51.4,228.6,51.6,228.5L51.6,228.5z"/>
<path class="st8" d="M229.4,364.3c-0.2,0-0.4,0-0.6,0c-0.2-4.3-0.4-8.5-0.5-12.8c-0.3-5.4-0.6-10.8-2.9-15.9
	c-0.2-0.5-0.1-1.1-0.2-1.7c0.2-0.1,0.4-0.1,0.7-0.2l1.4,3.1c0.4,1.4,0.8,2.8,1.2,4.2c0.1,0.5,0.2,1,0.2,1.5c0.1,0.4,0.1,0.8,0.2,1.1
	c0.1,0.5,0.1,1,0.2,1.5c0.1,0.5,0.1,1,0.2,1.5c0.1,0.7,0.1,1.5,0.2,2.2c0.1,0.8,0.1,1.5,0.2,2.3c0.1,1.5,0.1,3,0.2,4.5
	c-0.1,0.6-0.3,1.2-0.3,1.8C229.4,359.7,229.4,362,229.4,364.3L229.4,364.3z"/>
<path class="st11" d="M139.8,176.3c-0.1,0-0.3,0-0.4,0c-0.1-0.7-0.3-1.4-0.3-2c0.1-6.9,0.3-13.8,0.4-20.8c0-0.5,0.2-1,0.4-1.5
	c0.2,0,0.4,0,0.6,0c0.1,0.8,0.3,1.6,0.3,2.5C140.5,161.7,140.2,169,139.8,176.3L139.8,176.3z"/>
<path class="st8" d="M246.4,260.7c-0.3-0.9-0.6-1.8-0.9-2.6c-0.3-0.9-0.7-1.8-1-2.6c0-0.2-0.1-0.5-0.1-0.7c-0.1-0.1-0.2-0.2-0.3-0.4
	c0-0.3-0.1-0.5-0.1-0.8c-0.1-0.1-0.2-0.2-0.3-0.4c0-0.4-0.1-0.8-0.1-1.1c-0.1-0.1-0.2-0.2-0.3-0.4c0-0.3-0.1-0.5-0.1-0.8
	c-0.1-0.1-0.2-0.2-0.3-0.4c0-0.3-0.1-0.5-0.1-0.8c-0.1-0.1-0.2-0.2-0.3-0.4c0-0.3-0.1-0.5-0.1-0.8c-0.2-0.6-0.4-1.2-0.5-1.9
	c-0.1-0.2-0.2-0.5-0.2-0.7c0.3,0,0.5,0,0.8,0c0.4,0.8,0.8,1.6,1.3,2.3c0.9,2.8,1.8,5.6,2.6,8.4c0.3,0.7,0.5,1.4,0.8,2.1
	c0.2,0.7,0.5,1.3,0.7,2c0.3,0.9-0.5,2.1,0.9,2.5c0.1,0.2,0.2,0.5,0.3,0.8s0.2,0.5,0.3,0.8c0.1,0.3,0.2,0.6,0.3,0.9
	c0.3,0.8,0.6,1.6,1,2.5c0.1,0.2,0.2,0.5,0.3,0.8c-0.2,0.5-0.4,1-0.7,1.5l0,0c-0.1,0-0.2,0-0.2,0c-0.2-0.5-0.3-1-0.5-1.5
	c-0.1-0.1-0.2-0.2-0.3-0.3c-0.2-0.5-0.3-1-0.5-1.6c-0.1-0.1-0.2-0.2-0.3-0.3c-0.2-0.5-0.3-1-0.5-1.6c-0.1-0.1-0.2-0.2-0.2-0.3
	c0-0.3-0.1-0.5-0.1-0.8c-0.1-0.1-0.2-0.2-0.3-0.3c-0.1-0.5-0.3-1-0.5-1.6C246.8,261.7,246.6,261.2,246.4,260.7L246.4,260.7z"/>
<path class="st12" d="M229.4,364.3c0-2.3,0-4.6,0-6.9c0-0.6,0.2-1.2,0.3-1.8c0.1,0.5,0.2,1,0.2,1.5c0,9.4,0,18.8,0,28.2
	c0,0.4-0.1,0.7-0.2,1.1c-0.1-0.7-0.3-1.3-0.3-2C229.3,377.7,229.4,371,229.4,364.3L229.4,364.3z"/>
<path class="st12" d="M225.1,471.6c-0.1-2-0.2-4-0.2-6c0-1.4,0.4-2.8,0.4-4.2c0.2-4.8,0.4-9.6,0.6-14.4c0-0.7,1.2-1.7-0.3-2.1
	c0-0.2,0-0.3,0-0.5l1.2-1.6c0.1,0.5,0.2,1,0.1,1.4c-0.5,8.6-1,17.2-1.5,25.9C225.4,470.5,225.2,471,225.1,471.6L225.1,471.6z"/>
<path class="st12" d="M58.2,374.1c0.1,0.4,0.3,0.8,0.3,1.2c0,5.7,0,11.5,0,17.2c0,0.5-0.3,1-0.5,1.5C58,387.4,58.1,380.7,58.2,374.1
	L58.2,374.1z"/>
<path class="st12" d="M57.9,338.7c0.2,0.8,0.4,1.5,0.5,2.3c0,4.7,0,9.5,0,14.2c0,0.7-0.2,1.5-0.3,2.2c-0.1-2.3-0.2-4.6-0.2-6.9
	C57.9,346.6,57.9,342.7,57.9,338.7z"/>
<path class="st8" d="M49,214.9c0.8,4,1.6,8,2.4,12c-0.3,0-0.5,0-0.8,0l-0.5-0.4c-0.1-0.5-0.2-1-0.2-1.5c0-0.3-0.1-0.5-0.2-0.8
	c-0.1-0.4-0.1-0.7-0.2-1.1c-0.1-0.4-0.2-0.8-0.2-1.1c-0.1-0.4-0.1-0.7-0.2-1.1c-0.1-0.3-0.1-0.5-0.2-0.8c0-0.2-0.1-0.5-0.1-0.7
	c-0.1-0.3-0.1-0.5-0.2-0.8c-0.1-0.4-0.2-0.7-0.2-1.1c0-0.4,0-0.9,0.1-1.3C48.6,215.8,48.8,215.4,49,214.9z"/>
<path class="st12" d="M223.2,521.6c-0.2-0.7-0.6-1.3-0.6-1.9c0.1-3.8,0.2-7.7,0.4-11.5c0-0.6,0.4-1.1,0.6-1.7
	C223.4,511.5,223.3,516.5,223.2,521.6z"/>
<path class="st3" d="M226.8,442.7c-0.4,0.5-0.8,1.1-1.2,1.6c0-0.9,0-1.8,0.1-2.7c0-0.9,0-1.7,0.1-2.6c0.1-0.6,0.2-1.3,0.3-1.9
	l0.1-2.6c0.3-0.1,0.6-0.2,0.9-0.3c0,0.8,0.1,1.5,0.1,2.3c-0.1,1.2-0.1,2.4-0.2,3.5C226.9,440.9,226.9,441.8,226.8,442.7L226.8,442.7
	z"/>
<path class="st12" d="M57.8,403c0.3,0.7,0.6,1.3,0.9,2v0.1c-0.2,1.5-0.4,3.1-0.6,4.6c-0.1,0.8-0.3,1.6-0.5,2.4
	C57.6,409,57.7,406,57.8,403L57.8,403z"/>
<path class="st3" d="M266,753.7c-0.9,0.5-1.6,0.5-1.9-0.8c-0.2-0.8-0.7-1.6-0.9-2.4c-0.1-0.3,0.2-0.7,0.3-1.1c0.4,0.2,0.8,0.3,1,0.6
	c0.4,0.6,0.6,1.3,0.9,2C265.6,752.5,265.8,753.1,266,753.7L266,753.7z"/>
<path class="st12" d="M57.5,320c0.2,0.1,0.4,0.2,0.4,0.3c0,2.8-0.1,5.5-0.2,8.3C57.7,325.8,57.6,322.9,57.5,320z"/>
<path class="st10" d="M224.8,642.7c-0.9-1.6-0.9-5.2,0.1-6.2C224.8,638.6,224.8,640.7,224.8,642.7z"/>
<path class="st12" d="M43.2,697.8c-0.1,2.9-0.2,5.8-0.2,8.6C43.1,703.6,43.2,700.7,43.2,697.8z"/>
<path class="st12" d="M223.6,504.6c-0.1-2.6-0.1-5.3-0.2-7.9c0-0.1,0.3-0.3,0.5-0.4C223.8,499,223.7,501.8,223.6,504.6L223.6,504.6z
	"/>
<path class="st12" d="M254.1,279.8c-0.2-0.6-0.5-1.2-0.7-1.9c0.2-0.3,0.3-0.6,0.5-0.9l-0.9,0.2c-0.1-0.4-0.2-0.7-0.4-1.1
	c0.3-0.2,0.7-0.5,1-0.7c0.6,1.4,1.2,2.8,1.8,4.1C255,279.7,254.6,279.8,254.1,279.8L254.1,279.8z"/>
<path class="st12" d="M57.4,418.3c-0.1,2.6-0.2,5.3-0.3,7.9C57.2,423.6,57.3,421,57.4,418.3z"/>
<path class="st12" d="M229.3,398.4c0.1-2.4,0.2-4.8,0.3-7.2C229.5,393.6,229.4,396,229.3,398.4z"/>
<path class="st12" d="M42.8,716.6c-0.1,2.4-0.2,4.8-0.2,7.1C42.7,721.3,42.8,719,42.8,716.6z"/>
<path class="st12" d="M257.4,284c0.5,1.1,1,2.2,1.5,3.4c-0.4,0-0.9,0-1.3-0.1c-0.4-1-0.9-2-1.3-2.9C256.7,284.3,257,284.1,257.4,284
	L257.4,284z"/>
<path class="st12" d="M228.3,341c-0.4-1.4-0.8-2.8-1.2-4.2l0.5-0.8c0.4,1.6,0.9,3.3,1.4,5C228.7,341.1,228.5,341.1,228.3,341
	L228.3,341z"/>
<path class="st12" d="M43.6,682.5c-0.1,2.2-0.2,4.5-0.2,6.8C43.5,687,43.5,684.7,43.6,682.5z"/>
<path class="st12" d="M224.7,479.1c-0.1-2.1-0.1-4.3-0.2-6.4c0-0.1,0.4-0.3,0.5-0.4L224.7,479.1L224.7,479.1z"/>
<path class="st12" d="M224.8,628.4c-0.7-1.9-1.2-3.8-0.1-5.7C224.7,624.6,224.8,626.5,224.8,628.4z"/>
<path class="st12" d="M224.4,486.6c-0.1-2.1-0.2-4.2-0.2-6.2c0-0.2,0.4-0.4,0.6-0.6C224.6,482,224.5,484.3,224.4,486.6L224.4,486.6z
	"/>
<path class="st12" d="M224,494.8c-0.1-2.1-0.2-4.3-0.2-6.4c0-0.1,0.3-0.3,0.5-0.4C224.2,490.3,224.1,492.6,224,494.8L224,494.8z"/>
<path class="st12" d="M49,214.9c-0.2,0.4-0.4,0.9-0.5,1.3c-0.1,0.4,0,0.9-0.1,1.3c-0.5-1.8-1-3.5-1.5-5.3c0.1,0,0.2,0,0.3,0
	c0.4,0.1,0.7,0.3,1.1,0.4c0.1,0.3,0.2,0.5,0.3,0.8c-0.2,0.1-0.3,0.3-0.5,0.4l0.6,0.3C48.8,214.5,48.9,214.7,49,214.9L49,214.9z"/>
<path class="st12" d="M79.1,189.3c-2.6,0.9-5.2,1.8-7.8,2.7C73.9,191.1,76.5,190.2,79.1,189.3z"/>
<path class="st12" d="M259.7,288.9c0.5,1,0.9,2,1.4,3c-0.4,0-0.9,0-1.3,0c-0.4-0.9-0.8-1.7-1.2-2.6
	C258.9,289.1,259.3,289,259.7,288.9L259.7,288.9z"/>
<path class="st12" d="M57.1,308.7c0.1,2,0.2,4,0.3,6C57.3,312.7,57.2,310.7,57.1,308.7z"/>
<path class="st12" d="M42.5,732c-0.1,2-0.2,4-0.2,6C42.3,736,42.4,734,42.5,732z"/>
<path class="st12" d="M57,430.7c-0.1,1.9-0.2,3.8-0.3,5.7C56.9,434.5,57,432.6,57,430.7z"/>
<path class="st12" d="M44,669.7c-0.1,1.9-0.2,3.8-0.2,5.6C43.8,673.4,43.9,671.6,44,669.7z"/>
<path class="st12" d="M232,195.8c-0.1,0.4-0.3,0.8-0.4,1.1c-1.8-0.4-2.2-2.1-3-3.4C229.8,194.3,230.9,195,232,195.8L232,195.8z"/>
<path class="st8" d="M250.8,272.4c-0.2-0.5-0.3-1-0.5-1.5c0-0.1,0-0.2,0-0.3l0,0c0.4-0.1,0.7-0.2,1.1-0.4c0.1,0.2,0.2,0.5,0.3,0.8
	c0.1,0.4,0.3,0.7,0.4,1.1c0.1,0.2,0.2,0.5,0.3,0.8c-0.3,0.2-0.7,0.5-1,0.7c-0.1-0.3-0.3-0.5-0.4-0.8
	C251,272.6,250.9,272.5,250.8,272.4L250.8,272.4z"/>
<path class="st10" d="M133.4,150.9c0.8,0.7,1.5,1.4,2.3,2.1c-1.3-0.7-2.6-1.4-3.9-2.1c0.1-0.1,0.2-0.1,0.2-0.2
	C132.5,150.8,132.9,150.8,133.4,150.9L133.4,150.9z"/>
<path class="st12" d="M56.7,299.7c0.1,1.8,0.2,3.5,0.3,5.3C56.9,303.2,56.8,301.5,56.7,299.7z"/>
<path class="st12" d="M228.9,407c0.1-1.8,0.2-3.5,0.3-5.3C229.1,403.5,229,405.3,228.9,407z"/>
<path class="st8" d="M56.2,274.8c0.1,1.6,0.2,3.3,0.4,4.9c-1.2,0.5-0.9-0.5-1-1.1c-0.1-0.8-0.2-1.7-0.2-2.5
	C55.6,275.7,55.9,275.2,56.2,274.8L56.2,274.8z"/>
<path class="st12" d="M56.7,440.5c-0.1,1.6-0.2,3.3-0.2,4.9C56.5,443.7,56.6,442.1,56.7,440.5z"/>
<path class="st12" d="M44.3,658.8c-0.1,1.6-0.2,3.2-0.2,4.9C44.2,662.1,44.3,660.4,44.3,658.8z"/>
<path class="st12" d="M251.1,360.5c1.6,0,3.2,0,4.9,0C254.3,360.5,252.7,360.5,251.1,360.5z"/>
<path class="st12" d="M234.6,350c1.1,1.1,2.2,2.2,3.4,3.4C236.9,352.3,235.7,351.1,234.6,350z"/>
<path class="st11" d="M166.4,175.6c-1.5-0.1-3-0.1-4.5-0.2C163.4,175.5,164.9,175.6,166.4,175.6z"/>
<path class="st12" d="M261.5,293c0.4,0.8,0.7,1.5,1,2.3c-0.4,0-0.9,0-1.3,0c-0.3-0.6-0.5-1.2-0.8-1.9
	C260.8,293.3,261.2,293.1,261.5,293L261.5,293z"/>
<path class="st11" d="M155.2,175.4c-1.5,0.1-3,0.1-4.5,0.2C152.2,175.6,153.7,175.5,155.2,175.4z"/>
<path class="st12" d="M56.3,449.1c-0.1,1.5-0.2,3-0.2,4.5C56.1,452.1,56.2,450.6,56.3,449.1z"/>
<path class="st12" d="M56.4,292.6c0.1,1.4,0.2,2.8,0.3,4.1C56.6,295.4,56.5,294,56.4,292.6z"/>
<path class="st12" d="M44.7,649.4c-0.1,1.4-0.2,2.8-0.2,4.1C44.6,652.2,44.7,650.8,44.7,649.4z"/>
<path class="st12" d="M228.5,414.2c0.1-1.4,0.2-2.8,0.3-4.2C228.7,411.4,228.6,412.8,228.5,414.2z"/>
<path class="st12" d="M56,285.9c0.1,1.4,0.2,2.8,0.3,4.1C56.2,288.6,56.1,287.2,56,285.9z"/>
<path class="st12" d="M255.9,280.6c0.3,0.6,0.5,1.2,0.8,1.9c-0.4,0.1-0.7,0.2-1.1,0.4c-0.3-0.6-0.6-1.2-0.8-1.9
	C255.2,280.9,255.5,280.8,255.9,280.6L255.9,280.6z"/>
<path class="st12" d="M228.1,421.3c0.1-1.4,0.2-2.8,0.3-4.2C228.3,418.5,228.2,419.9,228.1,421.3z"/>
<path class="st12" d="M268.5,311.1c-0.5-1.5-0.9-3-1.4-4.5C267.6,308.1,268,309.6,268.5,311.1z"/>
<path class="st12" d="M55.9,457.4c-0.1,1.3-0.2,2.5-0.2,3.8C55.8,459.9,55.8,458.6,55.9,457.4z"/>
<path class="st12" d="M55.5,464.9c-0.1,1.3-0.2,2.5-0.2,3.8C55.4,467.4,55.5,466.1,55.5,464.9z"/>
<path class="st12" d="M45.1,640.8c-0.1,1.2-0.2,2.5-0.2,3.8C44.9,643.3,45,642.1,45.1,640.8z"/>
<path class="st12" d="M227.8,427.7c0.1-1.3,0.2-2.5,0.3-3.8C228,425.1,227.9,426.4,227.8,427.7z"/>
<path class="st12" d="M42.1,744.3c-0.1,1.2-0.1,2.5-0.2,3.8C42,746.8,42,745.6,42.1,744.3z"/>
<path class="st8" d="M259.7,288.9c-0.4,0.1-0.7,0.2-1.1,0.4c-0.3-0.6-0.6-1.3-0.9-2c0.4,0,0.9,0,1.3,0.1
	C259.2,287.9,259.4,288.4,259.7,288.9L259.7,288.9z"/>
<path class="st8" d="M253.6,275.4c-0.3,0.2-0.7,0.5-1,0.7c-0.2-0.5-0.5-1-0.7-1.5c0.4-0.1,0.9-0.2,1.3-0.3
	C253.3,274.6,253.5,275,253.6,275.4L253.6,275.4z"/>
<path class="st12" d="M224.1,606.7c0-1.3-1.4-2.5-0.1-3.8C224,604.1,224,605.4,224.1,606.7z"/>
<path class="st12" d="M243.8,248.4c-0.4-0.8-0.8-1.6-1.3-2.3c-0.1-0.6-0.3-1.2-0.4-1.8h0.2h0.2C242.9,245.6,243.3,247,243.8,248.4z"
	/>
<path class="st12" d="M45.8,625.4c-0.1,1.1-0.2,2.2-0.2,3.4C45.7,627.7,45.8,626.5,45.8,625.4z"/>
<path class="st12" d="M46.2,618.3c-0.1,1.1-0.2,2.2-0.2,3.4C46.1,620.5,46.2,619.4,46.2,618.3z"/>
<path class="st12" d="M54.4,485.5c-0.1,1.1-0.2,2.3-0.2,3.4C54.3,487.8,54.3,486.6,54.4,485.5z"/>
<path class="st12" d="M224.4,615.7c0-1.2-1.4-2.3-0.1-3.5C224.4,613.4,224.4,614.5,224.4,615.7z"/>
<path class="st8" d="M255.6,282.9c0.4-0.1,0.7-0.2,1.1-0.4c0.2,0.5,0.5,1,0.7,1.5c-0.4,0.1-0.7,0.2-1.1,0.4
	C256.1,283.9,255.8,283.4,255.6,282.9L255.6,282.9z"/>
<path class="st12" d="M227.4,434.2c0.1-1.2,0.2-2.4,0.3-3.6C227.6,431.8,227.5,433,227.4,434.2z"/>
<path class="st12" d="M227,440.1c0.1-1.2,0.1-2.4,0.2-3.5C227.1,437.7,227.1,438.9,227,440.1z"/>
<path class="st12" d="M54.1,491.9c0.1,0.5,0.2,1,0.3,1.5c-0.2,0.6-0.3,1.2-0.5,1.9C53.9,494.1,54,493,54.1,491.9L54.1,491.9z"/>
<path class="st12" d="M45.5,632.9c-0.1,1.1-0.1,2.2-0.2,3.4C45.3,635.2,45.4,634,45.5,632.9z"/>
<path class="st12" d="M55.2,472c-0.1,1.1-0.2,2.3-0.2,3.4C55,474.3,55.1,473.1,55.2,472z"/>
<path class="st12" d="M223.6,597.3c0-1.2-1.4-2.3-0.1-3.5L223.6,597.3z"/>
<path class="st12" d="M53.7,498.2c-0.1,1-0.2,2-0.2,3C53.6,500.2,53.7,499.2,53.7,498.2z"/>
<path class="st12" d="M53.3,504.6c-0.1,1-0.2,2-0.2,3C53.2,506.6,53.3,505.6,53.3,504.6z"/>
<path class="st12" d="M53,510.6l-0.2,3C52.8,512.6,52.9,511.6,53,510.6z"/>
<path class="st8" d="M255.9,280.6c-0.4,0.1-0.7,0.2-1.1,0.4c-0.2-0.3-0.4-0.6-0.6-0.9c0-0.1,0-0.2,0-0.3c0.4-0.1,0.9-0.2,1.3-0.3
	C255.6,279.9,255.7,280.3,255.9,280.6L255.9,280.6z"/>
<path class="st12" d="M52.6,516.6c-0.1,1-0.2,2-0.2,3C52.4,518.6,52.5,517.6,52.6,516.6z"/>
<path class="st12" d="M52.2,522.6c-0.1,1-0.2,2-0.2,3C52.1,524.6,52.1,523.6,52.2,522.6z"/>
<path class="st12" d="M223.2,583.1c-1-1-0.9-2.1-0.1-3.2C223.2,581,223.2,582,223.2,583.1z"/>
<path class="st12" d="M48.1,586.8c-0.1,1-0.1,2-0.2,3C48,588.8,48,587.8,48.1,586.8z"/>
<path class="st12" d="M47.7,593.2c-0.1,1-0.2,2-0.2,3C47.6,595.2,47.7,594.2,47.7,593.2z"/>
<path class="st12" d="M47.3,599.2c-0.1,1-0.2,2-0.2,3C47.2,601.2,47.3,600.2,47.3,599.2z"/>
<path class="st12" d="M47,605.5c-0.1,1-0.2,2-0.2,3C46.8,607.5,46.9,606.5,47,605.5z"/>
<path class="st12" d="M271.1,326.1c-0.1-1-0.2-2-0.2-3C271,324.1,271.1,325.1,271.1,326.1z"/>
<path class="st8" d="M261.3,295.3c0.4,0,0.9,0,1.3,0c0.1,0.4,0.3,0.7,0.5,1.1c-0.4,0.1-0.7,0.2-1.1,0.4
	C261.7,296.3,261.5,295.8,261.3,295.3L261.3,295.3z"/>
<path class="st12" d="M46.6,611.9c-0.1,1-0.2,2-0.2,3C46.5,613.9,46.5,612.9,46.6,611.9z"/>
<path class="st12" d="M253.2,274.3c-0.4,0.1-0.9,0.2-1.3,0.3c-0.1-0.4-0.2-0.7-0.4-1.1c0.3-0.2,0.7-0.5,1-0.7
	C252.8,273.3,253,273.8,253.2,274.3z"/>
<path class="st8" d="M261.5,293c-0.4,0.1-0.7,0.2-1.1,0.4c-0.2-0.5-0.5-1-0.7-1.5c0.4,0,0.9,0,1.3,0
	C261.2,292.3,261.4,292.6,261.5,293L261.5,293z"/>
<path class="st12" d="M54.8,479.1c-0.1,1-0.1,2-0.2,3C54.6,481.1,54.7,480.1,54.8,479.1z"/>
<path class="st10" d="M225.3,654.7h-0.2l-0.2,0c-0.2-1.2-0.4-2.4-0.6-3.5C224.6,652.3,225,653.5,225.3,654.7L225.3,654.7z"/>
<path class="st12" d="M261.9,296.8c0.4-0.1,0.7-0.2,1.1-0.4c0.2,0.5,0.5,1,0.7,1.5c-0.4,0-0.9,0-1.3,0
	C262.2,297.5,262.1,297.1,261.9,296.8z"/>
<path class="st12" d="M50.3,552.3c-0.1,0.9-0.2,1.8-0.2,2.6C50.2,554,50.3,553.1,50.3,552.3z"/>
<path class="st12" d="M50,557.9l-0.2,2.6L50,557.9z"/>
<path class="st12" d="M49.6,563.5c-0.1,0.9-0.1,1.8-0.2,2.6C49.4,565.3,49.5,564.4,49.6,563.5z"/>
<path class="st12" d="M51.5,535c-0.1,0.9-0.1,1.8-0.2,2.6C51.3,536.8,51.4,535.9,51.5,535z"/>
<path class="st12" d="M48.8,575.2c-0.1,0.9-0.2,1.8-0.2,2.6C48.7,576.9,48.8,576,48.8,575.2z"/>
<path class="st12" d="M49.2,569.5c-0.1,0.9-0.2,1.8-0.2,2.6C49.1,571.3,49.2,570.4,49.2,569.5z"/>
<path class="st12" d="M45.7,204.1c-0.2,0.8-0.5,1.5-0.7,2.3C44,205.3,44,205.1,45.7,204.1z"/>
<path class="st12" d="M270.9,336.9c0.1-0.9,0.2-1.8,0.3-2.6C271.1,335.1,271,336,270.9,336.9z"/>
<path class="st5" d="M50.6,227c0.3,0,0.5,0,0.8,0c0.1,0.5,0.2,1,0.3,1.5c-0.2,0.1-0.5,0.2-0.7,0.4c-0.2-0.2-0.4-0.5-0.6-0.7
	c0-0.3-0.1-0.5-0.1-0.8C50.4,227.2,50.5,227.1,50.6,227L50.6,227z"/>
<path class="st12" d="M48.5,581.2c-0.1,0.9-0.2,1.8-0.2,2.6C48.3,582.9,48.4,582,48.5,581.2z"/>
<path class="st12" d="M51.8,528.6l-0.2,2.6L51.8,528.6z"/>
<path class="st12" d="M268.5,347.3c0.4-1.1,0.7-2.2,1.1-3.3C269.2,345.1,268.9,346.2,268.5,347.3z"/>
<path class="st12" d="M51.1,540.6c-0.1,0.9-0.1,1.8-0.2,2.6C51,542.4,51,541.5,51.1,540.6z"/>
<path class="st12" d="M50.7,546.6c-0.1,0.9-0.1,1.8-0.2,2.6C50.6,548.4,50.6,547.5,50.7,546.6z"/>
<path class="st12" d="M266.1,352.6c0.5-0.9,0.9-1.8,1.4-2.6C267,350.9,266.5,351.8,266.1,352.6z"/>
<path class="st8" d="M242.4,244.2h-0.2h-0.2c-0.4-0.4-0.8-0.8-1.2-1.1c-0.1-0.2-0.2-0.5-0.2-0.7c0.2,0,0.5,0,0.8,0
	c0.3,0.4,0.6,0.8,0.9,1.2C242.3,243.8,242.4,244,242.4,244.2L242.4,244.2z"/>
<path class="st12" d="M248.8,263.4c-1.5-0.4-0.7-1.6-0.9-2.5C248.2,261.7,248.5,262.6,248.8,263.4z"/>
<path class="st12" d="M55.7,281.4c0,0.8,0.1,1.5,0.2,2.3C55.8,282.9,55.8,282.1,55.7,281.4z"/>
<path class="st12" d="M229.5,351.2c-0.1-0.8-0.1-1.5-0.2-2.3C229.4,349.7,229.4,350.4,229.5,351.2z"/>
<path class="st12" d="M55.1,270.6c0,0.9,0.1,1.8,0.2,2.8C55.2,272.4,55.1,271.5,55.1,270.6z"/>
<path class="st12" d="M41.7,751.1c-0.1,0.7-0.2,1.3-0.4,2C40.8,752.3,40.3,751.5,41.7,751.1z"/>
<path class="st12" d="M55.4,276.1c0.1,0.8,0.2,1.7,0.2,2.5C55.5,277.8,55.5,276.9,55.4,276.1z"/>
<path class="st12" d="M54.7,266.1c0,0.8,0.1,1.6,0.1,2.4C54.8,267.7,54.8,266.9,54.7,266.1z"/>
<path class="st12" d="M250.7,268.3c-0.3-0.8-0.6-1.6-1-2.5C250.1,266.6,250.4,267.4,250.7,268.3z"/>
<path class="st12" d="M61.4,195.7c-0.6,0.4-1.1,0.8-1.7,1.2C60.3,196.5,60.9,196.1,61.4,195.7z"/>
<path class="st12" d="M47.1,208.9c0.1,0.2,0.1,0.4,0.2,0.6c-0.2,0.5-0.5,1-0.7,1.5c0-0.4-0.1-0.7-0.1-1
	C46.6,209.6,46.9,209.3,47.1,208.9L47.1,208.9z"/>
<path class="st12" d="M223.3,585.6c0-0.6,0-1.2,0-1.8C223.2,584.4,223.3,585,223.3,585.6z"/>
<path class="st8" d="M47.1,208.9c-0.2,0.3-0.4,0.7-0.6,1c-0.2-0.3-0.4-0.7-0.6-1c0.1-0.2,0.2-0.5,0.2-0.7c0.2-0.2,0.4-0.3,0.6-0.5
	C46.8,208.1,46.9,208.5,47.1,208.9L47.1,208.9z"/>
<path class="st12" d="M54.3,261.6c0,0.8,0.1,1.6,0.2,2.4C54.4,263.2,54.4,262.4,54.3,261.6z"/>
<path class="st12" d="M84,187.8c-0.6,0.2-1.2,0.4-1.9,0.6C82.7,188.2,83.3,188,84,187.8z"/>
<path class="st12" d="M91.8,185.5c-0.6,0.2-1.3,0.4-1.9,0.6C90.6,185.9,91.2,185.7,91.8,185.5z"/>
<path class="st12" d="M246.8,359.2c0.7,0.3,1.4,0.5,2.1,0.8C248.2,359.7,247.5,359.5,246.8,359.2z"/>
<path class="st12" d="M242.3,243.5c-0.3-0.4-0.6-0.8-0.9-1.2c0-0.2,0-0.5,0-0.7c0.1,0,0.2,0,0.3,0
	C241.9,242.2,242.1,242.9,242.3,243.5L242.3,243.5z"/>
<path class="st12" d="M247.2,258.9c-0.3-0.7-0.5-1.4-0.8-2.1C246.7,257.5,246.9,258.2,247.2,258.9z"/>
<path class="st12" d="M229.1,346.7c-0.1-0.5-0.1-1-0.2-1.5C229,345.7,229.1,346.2,229.1,346.7z"/>
<path class="st12" d="M232.8,347.8c0.4,0.5,0.8,1,1.1,1.4C233.5,348.7,233.2,348.2,232.8,347.8z"/>
<path class="st12" d="M53.9,257.7c0.1,0.6,0.1,1.2,0.2,1.8C54,258.9,54,258.3,53.9,257.7z"/>
<path class="st11" d="M172,176c-0.5,0-1-0.1-1.5-0.1C171,175.9,171.5,175.9,172,176z"/>
<path class="st12" d="M238.8,354.1c0.5,0.4,1,0.8,1.4,1.1C239.8,354.9,239.3,354.5,238.8,354.1z"/>
<path class="st12" d="M51.6,236.3c0.1,0.5,0.2,1,0.2,1.5C51.7,237.3,51.6,236.8,51.6,236.3z"/>
<path class="st12" d="M53.5,253.6c0.1,0.6,0.2,1.2,0.2,1.8C53.6,254.8,53.5,254.2,53.5,253.6z"/>
<path class="st13" d="M46.5,211c0.2-0.5,0.5-1,0.7-1.5c0.2,0.5,0.3,1.1,0.5,1.6c-0.2,0.4-0.3,0.8-0.5,1.2c-0.1,0-0.2,0-0.3,0
	C46.8,211.9,46.7,211.4,46.5,211L46.5,211z"/>
<path class="st11" d="M145.8,175.9c-0.5,0-1,0.1-1.5,0.1C144.8,176,145.3,175.9,145.8,175.9z"/>
<path class="st12" d="M52.8,245.5c0,0.7,0.1,1.3,0.2,2C52.9,246.8,52.9,246.1,52.8,245.5z"/>
<path class="st12" d="M251.4,270.1c-0.4,0.1-0.7,0.2-1.1,0.4c0.2-0.5,0.4-1,0.7-1.5C251.2,269.4,251.3,269.8,251.4,270.1z"/>
<path class="st12" d="M53.1,249.5c0.1,0.6,0.2,1.2,0.2,1.8C53.3,250.6,53.2,250.1,53.1,249.5z"/>
<path class="st12" d="M52,239.3c0.1,0.5,0.1,1,0.2,1.5C52.1,240.3,52,239.8,52,239.3z"/>
<path class="st12" d="M52.3,242.3c0.1,0.6,0.2,1.2,0.3,1.8C52.5,243.5,52.4,242.9,52.3,242.3z"/>
<path class="st12" d="M234.8,209.4c-0.1-0.4-0.1-0.8-0.2-1.1C234.6,208.6,234.7,209,234.8,209.4z"/>
<path class="st12" d="M235.2,211.6c-0.1-0.4-0.2-0.8-0.2-1.1C235,210.9,235.1,211.2,235.2,211.6z"/>
<path class="st12" d="M235.6,213.9c-0.1-0.4-0.2-0.8-0.3-1.1C235.4,213.1,235.5,213.5,235.6,213.9z"/>
<path class="st12" d="M235.9,215.8c-0.1-0.4-0.2-0.8-0.3-1.1C235.8,215,235.9,215.4,235.9,215.8z"/>
<path class="st12" d="M236.3,217.6c-0.1-0.4-0.2-0.8-0.3-1.1C236.1,216.9,236.2,217.2,236.3,217.6z"/>
<path class="st12" d="M236.7,219.5c-0.1-0.4-0.2-0.8-0.2-1.1C236.5,218.7,236.6,219.1,236.7,219.5z"/>
<path class="st12" d="M237,221.4c-0.1-0.4-0.2-0.8-0.2-1.1C236.9,220.6,236.9,221,237,221.4z"/>
<path class="st12" d="M49.3,222.1c0.1,0.4,0.2,0.8,0.2,1.1C49.5,222.8,49.4,222.4,49.3,222.1z"/>
<path class="st12" d="M237.8,225.1c-0.1-0.4-0.2-0.8-0.3-1.1C237.6,224.4,237.7,224.8,237.8,225.1z"/>
<path class="st12" d="M238.2,227c-0.1-0.4-0.2-0.8-0.3-1.1C238,226.2,238.1,226.6,238.2,227z"/>
<path class="st12" d="M50.3,228.1c0.2,0.2,0.4,0.5,0.6,0.7c-0.1,0.2-0.2,0.5-0.3,0.7C50.5,229.1,50.4,228.6,50.3,228.1L50.3,228.1z"
	/>
<path class="st12" d="M50.8,231.1c0.1,0.4,0.1,0.8,0.2,1.1C51,231.8,50.9,231.4,50.8,231.1z"/>
<path class="st12" d="M51.2,233.7c0.1,0.4,0.1,0.8,0.2,1.1C51.3,234.5,51.3,234.1,51.2,233.7z"/>
<path class="st12" d="M233.7,203c-0.1-0.4-0.2-0.8-0.2-1.1C233.5,202.2,233.6,202.6,233.7,203z"/>
<path class="st12" d="M270.7,321.2c-0.1-0.4-0.1-0.8-0.2-1.2C270.6,320.4,270.7,320.8,270.7,321.2z"/>
<path class="st12" d="M270.5,339.5c0.1-0.4,0.1-0.8,0.2-1.2C270.7,338.8,270.6,339.1,270.5,339.5z"/>
<path class="st12" d="M222.9,547.7c0-0.4,0-0.7,0-1.1C222.9,547,222.9,547.4,222.9,547.7z"/>
<path class="st12" d="M270.1,341.8c0.1-0.4,0.2-0.8,0.3-1.1C270.3,341,270.2,341.4,270.1,341.8z"/>
<path class="st12" d="M228.8,343.7c-0.1-0.4-0.1-0.8-0.2-1.1C228.6,342.9,228.7,343.3,228.8,343.7z"/>
<path class="st11" d="M141.3,176.2c-0.4,0-0.8,0.1-1.1,0.1C140.6,176.3,140.9,176.3,141.3,176.2z"/>
<path class="st11" d="M175.8,176.4c-0.4-0.1-0.8-0.1-1.1-0.1C175,176.3,175.4,176.3,175.8,176.4z"/>
<path class="st11" d="M137.6,176.6c-0.4,0.1-0.8,0.1-1.1,0.1C136.8,176.7,137.2,176.7,137.6,176.6z"/>
<path class="st11" d="M178.8,176.7c-0.4-0.1-0.8-0.1-1.1-0.2C178,176.6,178.4,176.7,178.8,176.7z"/>
<path class="st12" d="M113.9,180.2c-0.4,0.1-0.8,0.2-1.1,0.3C113.2,180.4,113.6,180.3,113.9,180.2z"/>
<path class="st12" d="M232.9,198.5c-0.1-0.4-0.1-0.8-0.2-1.1C232.8,197.7,232.8,198.1,232.9,198.5z"/>
<path class="st12" d="M233.3,200.7c-0.1-0.4-0.2-0.8-0.2-1.1C233.1,200,233.2,200.4,233.3,200.7z"/>
<path class="st12" d="M234.1,205.2c-0.1-0.4-0.2-0.8-0.2-1.1C233.9,204.5,234,204.9,234.1,205.2z"/>
<path class="st12" d="M234.4,207.5c-0.1-0.4-0.2-0.8-0.2-1.1C234.3,206.7,234.4,207.1,234.4,207.5z"/>
<path class="st12" d="M261.2,358.3c0.3-0.3,0.7-0.5,1-0.8C261.9,357.8,261.6,358,261.2,358.3z"/>
<path class="st10" d="M127,34.8c-0.3,0.3-0.6,0.7-0.8,1C126.4,35.5,126.7,35.2,127,34.8z"/>
<path class="st12" d="M264.9,354.5c0.2-0.4,0.5-0.7,0.7-1.1C265.4,353.7,265.2,354.1,264.9,354.5z"/>
<path class="st12" d="M252.2,272c-0.1-0.4-0.3-0.7-0.4-1.1C251.9,271.3,252.1,271.6,252.2,272z"/>
<path class="st12" d="M258.9,359.6c0.4-0.2,0.8-0.4,1.1-0.6C259.7,359.2,259.3,359.4,258.9,359.6z"/>
<path class="st12" d="M108.3,181.5c-0.2,0.1-0.5,0.1-0.8,0.2C107.8,181.6,108.1,181.5,108.3,181.5z"/>
<path class="st12" d="M110.2,181c-0.2,0.1-0.5,0.1-0.8,0.2C109.7,181.2,109.9,181.1,110.2,181z"/>
<path class="st12" d="M112.1,180.6c-0.3,0.1-0.5,0.1-0.8,0.2C111.6,180.8,111.8,180.7,112.1,180.6z"/>
<path class="st12" d="M115.4,180c-0.2,0.1-0.5,0.1-0.8,0.1C114.9,180.1,115.2,180,115.4,180z"/>
<path class="st11" d="M194.1,179.8c-0.2-0.1-0.5-0.1-0.8-0.2C193.6,179.6,193.9,179.7,194.1,179.8z"/>
<path class="st11" d="M192.6,179.4c-0.2-0.1-0.5-0.1-0.8-0.2C192.1,179.3,192.4,179.3,192.6,179.4z"/>
<path class="st11" d="M121.4,178.9c-0.2,0.1-0.5,0.1-0.8,0.1C120.9,179,121.2,178.9,121.4,178.9z"/>
<path class="st11" d="M189.2,178.6c-0.2-0.1-0.5-0.1-0.8-0.2C188.7,178.5,189,178.5,189.2,178.6z"/>
<path class="st11" d="M123.7,178.5c-0.2,0.1-0.5,0.1-0.8,0.1C123.2,178.6,123.4,178.5,123.7,178.5z"/>
<path class="st11" d="M125.9,178.1c-0.2,0-0.5,0.1-0.8,0.1C125.4,178.2,125.7,178.2,125.9,178.1z"/>
<path class="st11" d="M128.6,177.7c-0.2,0-0.5,0.1-0.8,0.1C128.1,177.8,128.3,177.8,128.6,177.7z"/>
<path class="st11" d="M183.6,177.5c-0.2-0.1-0.5-0.1-0.8-0.1C183.1,177.4,183.4,177.4,183.6,177.5z"/>
<path class="st11" d="M131.2,177.4c-0.2,0-0.5,0.1-0.8,0.1C130.7,177.4,130.9,177.4,131.2,177.4z"/>
<path class="st11" d="M134.2,177c-0.3,0-0.5,0.1-0.8,0.1C133.7,177.1,133.9,177,134.2,177z"/>
<path class="st11" d="M214.2,186.3c-0.3-0.1-0.7-0.3-1-0.4C213.6,186,213.9,186.2,214.2,186.3z"/>
<path class="st12" d="M93.3,185.1c-0.2,0.1-0.5,0.2-0.8,0.2C92.8,185.3,93.1,185.2,93.3,185.1z"/>
<path class="st11" d="M210.1,184.8c-0.3-0.1-0.7-0.3-1-0.4C209.4,184.5,209.8,184.6,210.1,184.8z"/>
<path class="st12" d="M96,184.4c-0.2,0.1-0.5,0.1-0.8,0.2C95.5,184.6,95.7,184.5,96,184.4z"/>
<path class="st12" d="M97.5,184c-0.2,0.1-0.5,0.1-0.8,0.2C97,184.2,97.2,184.1,97.5,184z"/>
<path class="st12" d="M99,183.6c-0.2,0.1-0.5,0.1-0.8,0.2C98.5,183.8,98.7,183.7,99,183.6z"/>
<path class="st12" d="M229.1,341.4c0.1,0.2,0.2,0.5,0.3,0.8C229.3,341.9,229.2,341.6,229.1,341.4z"/>
<path class="st12" d="M100.5,183.3c-0.2,0.1-0.5,0.1-0.8,0.2C100,183.4,100.2,183.3,100.5,183.3z"/>
<path class="st12" d="M263.9,355.8c0.2-0.3,0.5-0.6,0.7-0.9C264.4,355.2,264.1,355.5,263.9,355.8z"/>
<path class="st12" d="M101.9,182.9c-0.2,0.1-0.5,0.1-0.8,0.2C101.4,183.1,101.7,183,101.9,182.9z"/>
<path class="st12" d="M103.4,182.6c-0.2,0.1-0.5,0.1-0.8,0.2C102.9,182.7,103.2,182.6,103.4,182.6z"/>
<path class="st12" d="M249.6,360.1c0.3,0.1,0.5,0.2,0.8,0.2C250.1,360.3,249.9,360.2,249.6,360.1z"/>
<path class="st11" d="M203.1,182.4c-0.2-0.1-0.5-0.2-0.8-0.3C202.6,182.2,202.9,182.3,203.1,182.4z"/>
<path class="st12" d="M249.4,264.9c-0.1-0.2-0.2-0.5-0.3-0.8C249.2,264.4,249.3,264.7,249.4,264.9z"/>
<path class="st12" d="M104.9,182.2c-0.2,0.1-0.5,0.1-0.8,0.2C104.4,182.3,104.7,182.3,104.9,182.2z"/>
<path class="st12" d="M106.8,181.8c-0.2,0.1-0.5,0.1-0.8,0.2C106.3,181.9,106.6,181.8,106.8,181.8z"/>
<path class="st12" d="M241.5,240.9c-0.1-0.3-0.2-0.5-0.3-0.8C241.4,240.4,241.4,240.6,241.5,240.9z"/>
<path class="st12" d="M241.1,239.4c-0.1-0.3-0.1-0.5-0.2-0.8C241,238.9,241,239.1,241.1,239.4z"/>
<path class="st12" d="M240.3,236.4c-0.1-0.3-0.1-0.5-0.2-0.8C240.2,235.9,240.3,236.1,240.3,236.4z"/>
<path class="st12" d="M240,234.9c-0.1-0.3-0.1-0.5-0.2-0.8C239.8,234.4,239.9,234.6,240,234.9z"/>
<path class="st12" d="M239.6,233.4c-0.1-0.3-0.1-0.5-0.2-0.8C239.5,232.9,239.5,233.1,239.6,233.4z"/>
<path class="st12" d="M239.3,231.9c-0.1-0.3-0.1-0.5-0.2-0.8C239.1,231.4,239.2,231.6,239.3,231.9z"/>
<path class="st12" d="M238.9,230.4c-0.1-0.3-0.1-0.5-0.2-0.8C238.8,229.9,238.8,230.1,238.9,230.4z"/>
<path class="st12" d="M238.5,228.5c-0.1-0.3-0.1-0.5-0.2-0.8C238.4,228,238.4,228.3,238.5,228.5z"/>
<path class="st12" d="M50.6,227c-0.1,0.1-0.2,0.2-0.3,0.4c0-0.3-0.1-0.5-0.1-0.8C50.3,226.7,50.4,226.8,50.6,227L50.6,227z"/>
<path class="st12" d="M264.8,300.5c-0.1-0.3-0.3-0.7-0.4-1C264.5,299.9,264.7,300.2,264.8,300.5z"/>
<path class="st12" d="M265.6,302.4c-0.1-0.2-0.2-0.5-0.3-0.8C265.4,301.9,265.5,302.2,265.6,302.4z"/>
<path class="st12" d="M49.7,224.3c0,0.3,0.1,0.5,0.2,0.8C49.8,224.8,49.8,224.6,49.7,224.3z"/>
<path class="st12" d="M266.3,304.3c-0.1-0.2-0.2-0.5-0.3-0.8C266.1,303.8,266.2,304,266.3,304.3z"/>
<path class="st12" d="M237.4,223.3c-0.1-0.3-0.1-0.5-0.2-0.8C237.3,222.7,237.3,223,237.4,223.3z"/>
<path class="st12" d="M48.9,220.2c0.1,0.3,0.1,0.5,0.2,0.8C49.1,220.7,49,220.4,48.9,220.2z"/>
<path class="st12" d="M48.6,218.7c0.1,0.3,0.1,0.5,0.2,0.8C48.7,219.2,48.7,218.9,48.6,218.7z"/>
<path class="st12" d="M269.3,313.7c-0.1-0.3-0.2-0.5-0.3-0.8C269.1,313.2,269.2,313.4,269.3,313.7z"/>
<path class="st12" d="M269.7,315.2c-0.1-0.3-0.2-0.5-0.2-0.8C269.5,314.7,269.6,314.9,269.7,315.2z"/>
<path class="st12" d="M270,316.7c-0.1-0.3-0.1-0.5-0.2-0.8C269.8,316.2,269.9,316.4,270,316.7z"/>
<path class="st12" d="M270.3,318.6c0-0.3-0.1-0.5-0.2-0.8C270.2,318,270.3,318.3,270.3,318.6z"/>
<path class="st12" d="M46.1,208.2c-0.1,0.2-0.2,0.5-0.2,0.7c-0.1-0.2-0.2-0.5-0.3-0.8C45.7,208.2,45.9,208.2,46.1,208.2z"/>
<path class="st12" d="M240.7,237.9c-0.1-0.3-0.1-0.5-0.2-0.8C240.6,237.4,240.6,237.6,240.7,237.9z"/>
<path class="st11" d="M181.4,177.1c-0.2,0-0.5-0.1-0.8-0.1C180.9,177,181.1,177.1,181.4,177.1z"/>
<path class="st12" d="M68.2,193c-0.2,0.1-0.5,0.2-0.7,0.3C67.7,193.2,68,193.1,68.2,193z"/>
<path class="st11" d="M219.8,188.6c-0.3-0.2-0.7-0.3-1-0.5C219.2,188.3,219.5,188.4,219.8,188.6z"/>
<path class="st12" d="M269.8,343.3c0.1-0.3,0.1-0.5,0.2-0.8C269.9,342.8,269.8,343,269.8,343.3z"/>
<path class="st12" d="M86.6,187c-0.2,0.1-0.5,0.2-0.8,0.2C86.1,187.2,86.3,187.1,86.6,187z"/>
<path class="st12" d="M89.2,186.3c-0.2,0.1-0.5,0.2-0.8,0.2C88.7,186.4,89,186.3,89.2,186.3z"/>
<path class="st10" d="M128.5,33c-0.2,0.2-0.4,0.4-0.5,0.6C128.2,33.4,128.4,33.2,128.5,33z"/>
<path class="st10" d="M126.2,35.9c-0.1,0.1-0.2,0.3-0.3,0.4C125.9,36.2,126.1,36,126.2,35.9z"/>
<path class="st10" d="M127.3,34.4c-0.1,0.1-0.2,0.3-0.3,0.4C127.1,34.7,127.2,34.6,127.3,34.4z"/>
<path class="st10" d="M127.7,34c-0.1,0.1-0.2,0.3-0.3,0.4C127.5,34.3,127.6,34.2,127.7,34z"/>
<path class="st10" d="M128,33.6c-0.1,0.1-0.2,0.3-0.3,0.4C127.8,33.9,127.9,33.8,128,33.6z"/>
<path class="st10" d="M128.9,32.6c-0.1,0.1-0.2,0.3-0.4,0.4C128.7,32.9,128.8,32.7,128.9,32.6z"/>
<path class="st10" d="M129.3,32.2c-0.1,0.1-0.3,0.3-0.4,0.4C129,32.5,129.1,32.3,129.3,32.2z"/>
<path class="st10" d="M129.6,31.8c-0.1,0.1-0.3,0.3-0.4,0.4C129.4,32.1,129.5,32,129.6,31.8z"/>
<path class="st10" d="M130,31.5c-0.1,0.1-0.3,0.3-0.4,0.4C129.8,31.7,129.9,31.6,130,31.5z"/>
<path class="st10" d="M130.4,31.2c-0.1,0.1-0.3,0.2-0.4,0.3C130.2,31.4,130.3,31.3,130.4,31.2z"/>
<path class="st6" d="M47.6,614.9c0.5-7,1-14.1,1.4-21.2c0.2-2.5,0.3-5.1,0.4-7.6c0.4-7.1,0.8-14.1,1.2-21.2
	c0.2-3.5,0.5-6.9,0.8-10.4c3.1,0.3,5.1-1.5,6.9-3.7c0.5,0.1,1.1,0.3,1.4,0.2c2.3-1.3,4.7-2.7,6.9-4.1c1.1-0.7,2-2,3.1-2.2
	c3.2-0.7,5.7-2.8,9.1-3.4c2-0.3,3.8-2.2,5.5-3.4c1.2-0.1,2.5,0.1,3.5-0.3c3.6-1.5,7.2-2.8,11.1-3.3c0.8-0.1,1.6-0.8,2.4-1.3
	c1.1-0.7,2.3-1.3,3.4-1.9c0.1-0.1,0.4,0,0.5,0.1c2.3,0.8,4.3-0.1,6.3-1c2.5-1.1,5.1-1.8,7.8-1.8c3.1,0,6.2,0,9-1.7
	c0.3-0.2,0.8,0,1.2,0.1c0.4,0.1,0.9,0.5,1.2,0.3c2.1-0.9,4.2-1.7,6.6-1.1c0.1,0,0.3-0.2,0.5-0.2c0.9-0.1,1.9-0.2,2.9-0.2
	c1,0,2.2,0.5,2.8,0.1c1-0.6,1.7-0.7,2.7-0.2c0.4,0.2,1,0.1,1.5,0.1c3.5-0.1,7-0.2,10.5-0.4c0.2,0,0.5,0,0.8,0c2,0.3,4,0.6,6,1
	c2.5,0.5,5.1,0.1,7.6,1c1.9,0.7,4,0.9,5.9,0.7c1.7-0.1,3.2,2.2,4.9,0.2c1.3,2.1,1.6,2,3,1.8c1.4-0.2,2.9,0.1,4.4,0.3
	c1.5,0.3,2.9,0.8,4.4,1.1c1.2,0.2,2.6,0.1,3.6,0.6c1.3,0.7,2.8,1.1,4.1,1.9c2.6,1.4,5.6,2.2,8.6,2.6c3.1,0.4,5.4,2.5,8.3,3.2
	c0.1,0,0.3,0.3,0.3,0.4c0.2,1.5,1.1,0.6,1.8,0.6c-0.1,5-0.2,10.1-0.2,15.1c0.1,10.8,0.2,21.7,0.4,32.5c-1.1-0.1-2.3-0.1-3.6-0.2
	c0.1-0.4,0.3-0.9,0.5-1.6c-1.4-0.2-2.6-2-4.2-0.1c-4-5.4-9.8-6.8-16.2-7.2c0.2-0.7,0.4-1.1,0.5-1.7c-0.2-0.1-0.5-0.2-0.6-0.1
	c-1,0.7-1.8,0.8-2.7-0.2c-0.3-0.3-1.2-0.2-1.7-0.1c-1.2,0.3-2.2-0.3-2.3-1.4c0-0.5-0.4-1.3-0.5-1.3c-0.6,0.1-1.2,0.3-1.8,0.6
	c-0.3,0.2-0.4,0.7-0.7,1.3c-0.2-0.5-0.4-0.7-0.5-1c-0.1-1.4-0.4-2.1-1.7-0.8c-0.2,0.2-0.8,0.4-1.1,0.3c-1.3-0.5-2.5-1-3.7-1.7
	c-1.7-1-1.8-1-2.1,1.1c-0.2-0.1-0.6,0-0.7-0.2c-1.6-1.6-3.6-2.1-5.8-1.7c-0.4,0.1-1,0-1.2-0.3c-0.6-0.8-1.1-0.9-2-0.3
	c-0.4,0.3-1.4-0.2-2.2-0.3c0.2-0.7,0.4-1.2,0.6-1.8c-0.1-0.2-0.2-0.3-0.4-0.5c-0.8,0.6-1.7,1.2-2.6,1.8c-0.6-1.4-1.6-1.9-3.1-0.2
	c-0.6-3.2-3.1,0.5-3.9-1.4c-0.8,0.4-1.4,0.7-2,1c0-1.1-0.5-1.3-1.8-0.5c0.9,0.2,1.4,0.4,1.8,0.5c-1.5,1.6-3.1,0.9-4.1-1.9
	c-2.9,0.5-5.7,1-8.6,1.6c-0.5-0.5-1.1-0.4-2.4-0.3c-1.6,0.1-2.2,1-3.4,1.6c-0.9,0.5-2.2,0.2-3.3,0.2c-0.6,0-1.3,0.1-1.9,0.2
	c-0.3,0-0.6,0.4-0.8,0.4c-1.9-0.3-3.8-0.7-5.7-1c-0.6,0.5-1.4,1-2.1,1.6l-0.3-0.3c-0.2,0.5-0.3,1.1-0.6,1.8
	c-0.6-0.3-1.1-0.4-1.6-0.7c-1.1-0.7-2-0.7-3.2,0c-1,0.5-2.3,0.4-3.6,0.6c-0.8,1.9-2,3-3.2,2.6c-0.9-0.3-1.9-0.9-2.8-0.7
	c-1.6,0.3-3.4,0.4-4.5,2c-0.2,0.3-0.9,0.8-1.1,0.7c-1.1-0.7-1.8,0-2.8,0.2c-1.6,0.3-2.4,1.2-3.6,2c-0.4,0.3-1,0.2-1.5,0.4
	c-0.4,0.1-0.8,0.3-1.2,0.5c-0.2,0.1-0.4,0.5-0.5,0.5c-2.6-0.2-3.5,2.2-5.2,3.3c-0.2,0.1-0.5,0.3-0.7,0.3c-3-0.5-4.2,1.5-5.3,3.7
	c-0.8,1.6-2.4,2.3-4,2.3c-1.9,0.1-3.5,0.3-4.5,2.3c-0.3,0.6-1.6,0.8-2.4,1.1c-0.5,0.2-1,0.2-1.6,0.3c1.3,2.5,1.2,2.6-1.5,3.2
	c-1.5,0.3-2.9,0.7-4.3,1.3c-0.6,0.2-0.8,1.2-1.3,1.7c-1,0.9-2,1.8-3.1,2.6c-1.6,1.3-3.3,2.5-5.1,3.9h1.9c0.4,1.6-0.9,1.6-1.7,1.7
	c-1.4,0.1-1.7,0.8-1.4,1.6c-0.9,0.8-1.8,1.4-2.4,2.2C50.1,615.2,48.8,614.8,47.6,614.9L47.6,614.9z M130.8,570
	c-0.2-0.2-0.3-0.4-0.5-0.6c-0.5,0.4-0.9,0.8-1.4,1.1c0.1,0.2,0.2,0.3,0.4,0.5C129.8,570.7,130.3,570.4,130.8,570L130.8,570z
	 M81,589.4c0.1-0.2,0.2-0.4,0.3-0.5c-0.4-0.2-0.8-0.4-1.1-0.6c-0.1,0.2-0.2,0.4-0.3,0.5C80.3,589,80.6,589.2,81,589.4L81,589.4z
	 M111.8,575.6l0.5,0.3c0.2-0.4,0.3-0.8,0.5-1.2l-0.4-0.2C112.2,574.9,112,575.2,111.8,575.6L111.8,575.6z"/>
<path class="st14" d="M261.9,296.8c0.2,0.4,0.3,0.8,0.5,1.1c1.7,4.7,3.3,9.4,5,14c-0.6,1.5-1.9,2.2-3.5,2.5
	c-0.7,0.1-1.3,0.8-1.9,1.3c-0.9,1-1.6,2.3-2.7,3c-2.3,1.5-4.8,2.8-7.2,4c-1.6,0.8-3.5,1.2-5.2,1.9c-3.2,1.5-6.4,2.8-9.9,3.4
	c-0.7,0.1-1.5,0.1-2,0.5c-2,1.6-4.3,1.4-6.5,1.5c-3.4,0.2-6.8,0.6-10.2,1c-2.2,0.2-4.5,0.6-6.7,0.9c-1.2,0.1-2.5,0.2-3.7,0.3
	c-1.4,0.1-2.8,0.3-4.3,0.3c-2.5,0-5-0.1-7.5-0.1c-2.9-0.1-5.9-0.1-8.8-0.3c-2.8-0.2-5.7-0.7-8.5-0.9c-4.1-0.3-8.2-0.5-12.4-0.8
	c-5.6-0.4-11.1-0.8-16.7-1c-4.6-0.2-9.3-0.1-14,0c-5.4,0.1-10.8,0.2-16.2,0.4c-0.2,0-0.5,0-0.8,0c-6,0.5-12,1.1-18,1.4
	c-5.3,0.2-10.6,0.2-15.8,0c-4.2-0.2-8.4-1-12.6-1.5c-1.5-0.2-3.2,0-4.6-0.6c-2.9-1.3-5.8-1.3-8.8-1.2c-0.1-0.5-0.2-1-0.2-1.5
	c0-0.5,0-1,0-1.5c-0.1-3.6-0.2-7.2-0.3-10.9c0-0.8,0-1.5-0.1-2.3c-0.1-2.5-0.2-5-0.3-7.5c0-0.6-0.1-1.3-0.1-1.9c-0.1-2-0.2-4-0.3-6
	c0-0.5,0-1-0.1-1.5c-0.1-1.6-0.2-3.2-0.2-4.8c0-0.6-0.1-1.3-0.1-1.9c0-0.8,0-1.5,0-2.2c1.7,1,3.3,2,5,3c-0.1,0.2-0.2,0.4-0.2,0.6
	c-0.9,0.1-1.8,0.2-2.6,0.3l-0.1,0.5c0.5,0.2,1.1,0.6,1.6,0.5c4.1-0.5,7.8,0.7,11.3,2.9c3.1,1.9,6.4,3.6,10.4,3.1
	c3.9-0.5,7.7-1.2,11.6-1.4c2.7-0.2,5.5,0.2,8.2,0.5c2.3,0.3,4.5,1.1,6.8,1.1c2.1,0,4.2-0.7,6.4-1c1.5-0.2,3-0.3,4.4-0.4
	c2.7-0.1,5.3-0.4,8-0.3c6,0.1,11.9,0.5,17.9,0.6c2.8,0.1,5.7,0,8.5,0.1c3.5,0.1,7.1,0.3,10.6,0.4c2.2,0.1,4.5,0.1,6.7,0.3
	c5.2,0.4,10.6,0.4,15.7,1.6c3.8,0.9,7.2,0.9,10.9,0c1.9-0.5,4.2-0.2,6.2,0.1c4.1,0.6,8,1.5,12.1,2c3.1,0.4,5.5-1.7,7.8-3.5
	c1.9-1.5,3.8-2.6,6.4-2.1c1.4,0.3,2.9,0.3,4.3,0.2c0.4,0,1.2-0.5,1.2-0.9c0.1-0.8-0.1-1.6-0.4-2.4c-0.2-0.4-0.8-0.5-1.4-1
	c2-2,3.7-4.1,5.8-5.7c0.8-0.6,2.5-0.3,3.8-0.2c2.3,0.2,4.6,0.7,7,0.9c1.8,0.1,1.7-1.4,2-2.6c0.3-1.1,0.8-2.1,1.2-3.2
	c0.2,0.3,0.4,0.6,0.6,0.9c0.3,0.6,0.6,1.2,0.8,1.9c0.2,0.5,0.5,1,0.7,1.5c0.4,1,0.9,2,1.3,2.9c0.3,0.6,0.6,1.3,0.9,2
	c0.4,0.9,0.8,1.7,1.2,2.6c0.2,0.5,0.5,1,0.7,1.5c0.3,0.6,0.5,1.2,0.8,1.9C261.5,295.8,261.7,296.3,261.9,296.8L261.9,296.8z"/>
<path class="st5" d="M240.9,243.1c0.4,0.4,0.8,0.8,1.2,1.1c0.1,0.6,0.3,1.2,0.4,1.8c-0.3,0-0.5,0-0.8,0
	C241.4,245.1,241.2,244.1,240.9,243.1L240.9,243.1z"/>
<path class="st5" d="M244.5,255.4c0.3,0.9,0.7,1.8,1,2.6C245.2,257.2,244.8,256.3,244.5,255.4z"/>
<path class="st5" d="M241.4,241.6c0,0.2,0,0.5,0,0.7c-0.2,0-0.5,0-0.8,0c-0.2-0.6-0.4-1.3-0.7-1.9
	C240.4,240.8,240.9,241.2,241.4,241.6L241.4,241.6z"/>
<path class="st8" d="M253,277.2l0.9-0.2c-0.2,0.3-0.3,0.6-0.5,0.9C253.3,277.7,253.1,277.4,253,277.2L253,277.2z"/>
<path class="st8" d="M47.2,212.3c0.2-0.4,0.3-0.8,0.5-1.2c0.2,0.5,0.4,1.1,0.6,1.6C48,212.6,47.6,212.5,47.2,212.3z"/>
<path class="st5" d="M242,246.8c0.2,0.6,0.4,1.2,0.5,1.9C242.3,248.1,242.1,247.5,242,246.8z"/>
<path class="st5" d="M246.4,260.7c0.2,0.5,0.4,1,0.6,1.5C246.8,261.7,246.6,261.2,246.4,260.7z"/>
<path class="st5" d="M239.7,239c0.1,0.3,0.1,0.5,0.1,0.8C239.8,239.5,239.8,239.2,239.7,239z"/>
<path class="st5" d="M239.4,237.5c0.1,0.3,0.1,0.5,0.1,0.8C239.4,238,239.4,237.7,239.4,237.5z"/>
<path class="st8" d="M48.7,214.2l-0.6-0.3c0.2-0.1,0.3-0.3,0.5-0.4C48.6,213.8,48.7,214,48.7,214.2L48.7,214.2z"/>
<path class="st5" d="M234.1,212.7c0.1,0.2,0.1,0.5,0.1,0.8C234.2,213.2,234.2,212.9,234.1,212.7z"/>
<path class="st5" d="M233.7,210.4c0.1,0.3,0.1,0.5,0.2,0.8C233.9,211,233.8,210.7,233.7,210.4z"/>
<path class="st5" d="M233,206.3c0,0.2,0.1,0.5,0.1,0.8C233.1,206.8,233.1,206.6,233,206.3z"/>
<path class="st5" d="M232.7,204.1c0,0.2,0.1,0.5,0.1,0.8C232.8,204.6,232.7,204.3,232.7,204.1z"/>
<path class="st5" d="M232.3,201.8c0.1,0.2,0.1,0.5,0.1,0.8C232.4,202.3,232.3,202.1,232.3,201.8z"/>
<path class="st5" d="M248.6,266.8c0.1,0.1,0.2,0.2,0.3,0.3C248.8,267,248.7,266.9,248.6,266.8z"/>
<path class="st12" d="M247.9,264.9c0.1,0.1,0.2,0.2,0.2,0.3C248,265.1,247.9,265,247.9,264.9z"/>
<path class="st5" d="M247.5,263.8c0.1,0.1,0.2,0.2,0.3,0.3C247.7,264,247.6,263.9,247.5,263.8z"/>
<path class="st5" d="M244.1,254.4c0.1,0.1,0.2,0.2,0.3,0.4C244.3,254.6,244.2,254.5,244.1,254.4z"/>
<path class="st5" d="M243.4,251.7c0.1,0.1,0.2,0.2,0.3,0.4C243.5,252,243.4,251.9,243.4,251.7z"/>
<path class="st5" d="M243,250.6c0.1,0.1,0.2,0.2,0.3,0.4C243.1,250.9,243.1,250.7,243,250.6z"/>
<path class="st5" d="M243.7,253.2c0.1,0.1,0.2,0.2,0.3,0.4C243.9,253.5,243.8,253.4,243.7,253.2z"/>
<path class="st5" d="M249.4,268.6c0.1,0.1,0.2,0.2,0.3,0.3C249.5,268.8,249.4,268.7,249.4,268.6z"/>
<path class="st5" d="M250.8,272.4c0.1,0.1,0.2,0.2,0.3,0.3C251,272.6,250.9,272.5,250.8,272.4z"/>
<path class="st5" d="M250.3,270.5c0,0.1,0,0.2,0,0.3c-0.1-0.1-0.2-0.2-0.3-0.4C250.2,270.5,250.3,270.5,250.3,270.5L250.3,270.5z"/>
<path class="st5" d="M242.6,249.5c0.1,0.1,0.2,0.2,0.3,0.4C242.8,249.7,242.7,249.6,242.6,249.5z"/>
<path class="st15" d="M131.5,121.2c-0.9,0-1.7,0-2.6,0c-0.1-0.3-0.3-0.7-0.3-1c-0.4-5.3-0.8-10.6-1.2-15.9c0-3.3,0-6.6,0.1-9.9
	c0.3-12,2.2-23.8,6.3-35.1c0.7-2,2.7-3.4,4.3-5c0.2-0.2,1.2,0.2,1.7,0.6c3.6,2.8,5.3,6.8,6.9,10.9c3,8.1,5.9,16.3,6.9,25
	c0.5,4.5,0.5,9,0.8,13.6c-0.4,4-0.7,8-1.1,12.1c-0.9,0-1.7-0.1-2.6-0.1c0.1-1.4,0.3-2.9,0.4-4.3c0.6-7.3,0.6-14.6-0.4-21.9
	c-1.2-9-4.3-17.4-7.4-25.9c-0.7-2-1.7-3.9-2.7-5.8c-0.4-0.7-1.3-1.4-2-1.4c-0.6,0-1.2,1-1.8,1.6c-0.2,0.3-0.3,0.7-0.4,1
	c-3.9,11.9-6,24.1-6,36.6C130.2,104.6,131,112.9,131.5,121.2L131.5,121.2z"/>
<path class="st16" d="M127.3,104.3c0.4,5.3,0.8,10.6,1.2,15.9c0,0.3,0.2,0.7,0.3,1c0.4,3,0.8,6,1.2,9c-2.9,0.5-5.8,1-8.6,1.6
	c-0.5,0.1-0.8,0.7-1.2,1.1c-1-2.1-2.3-4.1-2.8-6.3c-1.6-6.5-2.8-13.1-4.2-19.6C117.9,106,122.6,105.2,127.3,104.3z"/>
<path class="st16" d="M153.1,116.3c0.4-4,0.7-8,1.1-12.1c2.1,0.1,4.2,0.3,6.3,0.4c-1.8,9.2-5,18-9.2,26.3c-0.1,0.2-0.3,0.3-0.4,0.4
	c0-0.6-0.1-1.1,0-1.6C151.6,125.3,152.3,120.8,153.1,116.3L153.1,116.3z"/>
<path class="st8" d="M221.8,540.6c-0.7,0.1-1.6,1-1.8-0.6c0-0.2-0.2-0.4-0.3-0.4c-2.9-0.7-5.2-2.8-8.3-3.2c-2.9-0.4-6-1.2-8.6-2.6
	c-1.3-0.7-2.8-1.2-4.1-1.9c-1-0.5-2.4-0.3-3.6-0.6c-1.5-0.3-2.9-0.9-4.4-1.1c-1.4-0.2-2.9-0.5-4.4-0.3c-1.4,0.2-1.7,0.3-3-1.8
	c-1.6,2.1-3.1-0.3-4.9-0.2c-2,0.1-4.1-0.1-5.9-0.7c-2.5-0.9-5.1-0.5-7.6-1c-2-0.4-4-0.7-6-1c-0.2,0-0.5,0-0.8,0
	c-3.5,0.1-7,0.2-10.5,0.4c-0.5,0-1.1,0.1-1.5-0.1c-1-0.5-1.7-0.4-2.7,0.2c-0.7,0.4-1.9-0.1-2.8-0.1c-0.9,0-1.9,0.1-2.9,0.2
	c-0.2,0-0.4,0.2-0.5,0.2c-2.4-0.5-4.5,0.2-6.6,1.1c-0.3,0.1-0.8-0.2-1.2-0.3c-0.4-0.1-0.9-0.3-1.2-0.1c-2.8,1.6-5.9,1.7-9,1.7
	c-2.8,0-5.3,0.7-7.8,1.8c-1.9,0.8-4,1.8-6.3,1c-0.2-0.1-0.4-0.1-0.5-0.1c-1.2,0.6-2.3,1.3-3.4,1.9c-0.8,0.5-1.6,1.2-2.4,1.3
	c-3.9,0.5-7.5,1.8-11.1,3.3c-1,0.4-2.3,0.2-3.5,0.3c-1.7,1.1-3.5,3-5.5,3.4c-3.3,0.6-5.8,2.8-9.1,3.4c-1.1,0.2-2,1.6-3.1,2.2
	c-2.3,1.4-4.6,2.8-6.9,4.1c-0.3,0.2-1-0.1-1.4-0.2c-1.8,2.2-3.8,4-6.9,3.7c0.5-8,1-16,1.5-24c0.6-0.2,1.3-0.2,1.7-0.7
	c2.6-3.2,6.4-4.2,9.9-5.7c3.7-1.5,7.2-3.7,11.3-4.4c0.2,0,0.5-0.2,0.6-0.4c1.4-2.2,4-2.2,5.9-2.6c3-0.5,5.3-2.9,8.4-2.6
	c0.1,0,0.2-0.2,0.3-0.2c1-0.5,2-1.2,3.1-1.5c4.1-0.9,8.2-1.5,12.3-2.3c0.6-0.1,1.1-0.5,1.7-0.7c0.8-0.4,1.6-0.8,2.5-1
	c0.9-0.2,1.9-0.2,2.8-0.4c1.3-0.2,2.6-0.3,3.9-0.5c0.6-0.1,1.3-0.4,1.9-0.6c0.5-0.1,0.9-0.6,1.3-0.5c2,0.3,3.8-0.1,5.8-0.3
	c5-0.4,10-1.6,15.2-0.9c1.5,0.2,3.1-0.7,4.6-0.6c3,0.2,6,0.9,9-0.1c0.6-0.2,1.4,0.1,2,0.2c1.7,0.3,3.5,1,5.1,0.7c2.1-0.4,4,0,6,0.1
	c2.2,0.1,4.3,0.5,6.5,0.8c2.6,0.3,5.3,0.5,7.9,0.9c1.6,0.2,3.2,0.6,4.8,1c2.1,0.4,4.3,0.7,6.4,1.2c2.8,0.8,5.6,1.8,8.4,2.5
	c1.7,0.5,3.5,0.5,5.2,1.1c1.3,0.4,2.4,1.4,3.6,1.8c0.9,0.3,2,0.2,3,0.4c2.6,0.7,5.2,1.5,7.8,2.3c0,5.1,0,10.2,0,15.2
	C221.8,535.5,221.8,538,221.8,540.6L221.8,540.6z"/>
<path class="st5" d="M55.1,494.1c0.3-3.9,0.5-7.8,0.8-11.6c0.8-0.1,2,0.2,2.4-0.2c1.9-1.8,4.5-1.8,6.7-2.7c2.3-1,5.1-1.3,6.9-2.8
	c1.7-1.4,3.5-1.5,5.2-2c3.9-1.2,7.9-2.1,11.9-3.1c2.4-0.7,4.9-1.5,7.3-2.1c0.6-0.2,1.4,0,2.1-0.1c0.6,0,1.1-0.1,1.7-0.2
	c2.8-0.5,5.6-1.2,8.4-1.6c3.7-0.5,7.3-0.7,11-1.1c3.2-0.3,6.4-0.8,9.6-1c0.8-0.1,1.6,0.5,2.3,0.4c3-0.2,5.9-0.7,8.9-0.9
	c1.8-0.1,3.7,0,5.5-0.1c2,0,4-0.2,6-0.2c2.5,0,5,0.2,7.5,0.3c3.8,0.1,7.6-0.2,11.3,0.1c5.6,0.4,11.1,1.1,16.6,1.8
	c4.6,0.6,9.2,1.4,13.8,2.1c5.6,0.9,10.7,3.3,16.3,3.9c0.4,0,0.8,0.3,1.2,0.5c1.5,1.2,3.3,1.4,5.1,1.2c-0.3,6.1-0.6,12.2-0.8,18.4
	c-0.9-0.4-1.8-0.8-2.7-1.1c-3-1-6.1-2-9.1-3c-0.6-0.2-1.2-0.6-1.9-0.8c-5.2-1-10.4-2.1-15.7-3.1c-2.2-0.4-4.4-0.7-6.6-1
	c-3.8-0.6-7.6-1.5-11.4-1.8c-1.4-0.1-2.6,0.1-3.3-1.2c-0.8,0.3-1.5,0.9-2.1,0.9c-3.1-0.2-6.3-0.6-9.4-1c-1.1-0.1-2.1-0.4-3.2-0.3
	c-2.1,0-4.2,0.2-6.4,0.3c-2.4,0.1-4.7,0.1-7.1,0.1c-0.8,0-1.6-0.1-2.4-0.1c-2.3-0.1-4.9-0.7-6.9,0c-1.6,0.5-3,0.6-4.5,0.8
	c-3.3,0.4-6.6,0.8-9.9,1.2c-3.4,0.4-6.8,0.7-10.1,1.3c-4.4,0.8-8.8,1.9-13.2,2.9c-1.6,0.4-3.1,0.9-4.6,1.3c-2.1,0.6-4.3,1.2-6.4,1.8
	c-2.9,0.8-5.8,1.5-8.6,2.5c-3,1.1-5.9,2.5-8.8,3.7c-1.1,0.5-2.3,1-3.4,1.5c-2.2,1-4.5,1.9-6.7,2.9c-0.8,0.3-1.6,0.5-2.4,0.8
	c-0.2-0.8-0.4-1.5-0.6-2.2C55.1,497.5,55.1,495.8,55.1,494.1L55.1,494.1z"/>
<path class="st17" d="M223.7,474.6c-1.9,0.1-3.6-0.1-5.1-1.2c-0.3-0.3-0.8-0.5-1.2-0.5c-5.6-0.6-10.8-3.1-16.3-3.9
	c-4.6-0.7-9.2-1.5-13.8-2.1c-5.5-0.7-11.1-1.4-16.6-1.8c-3.8-0.3-7.5,0-11.3-0.1c-2.5,0-5-0.2-7.5-0.3c-2,0-4,0.2-6,0.2
	c-1.8,0-3.7-0.1-5.5,0.1c-3,0.2-5.9,0.7-8.9,0.9c-0.8,0.1-1.6-0.5-2.3-0.4c-3.2,0.3-6.4,0.7-9.6,1c-3.7,0.4-7.4,0.6-11,1.1
	c-2.8,0.4-5.6,1.1-8.4,1.6c-0.5,0.1-1.1,0.2-1.7,0.2c-0.7,0-1.4-0.1-2.1,0.1c-2.4,0.7-4.9,1.5-7.3,2.1c-3.9,1.1-8,1.9-11.9,3.1
	c-1.7,0.5-3.6,0.6-5.2,2c-1.8,1.5-4.6,1.8-6.9,2.8c-2.2,0.9-4.8,0.9-6.7,2.7c-0.5,0.5-1.6,0.2-2.4,0.2c0.4-6.4,0.7-12.8,1.1-19.1
	c0.9-0.5,1.7-1.2,2.7-1.4c4-1.1,8-2.1,12-3.1c3.9-0.9,7.8-1.8,11.7-2.6c2.8-0.6,5.6-1,8.3-1.6c3.3-0.8,6.4-1.9,9.9-2s7-1,10.4-1.5
	c2.6-0.4,5.2-1,7.8-1.2c3.7-0.4,7.4-0.6,11.1-0.8c4.1-0.1,8.1-0.1,12.2-0.2c5.6-0.1,11.3-0.2,16.9-0.2c0.9,0,1.7,0,2.6,0
	c4.4,0.1,8.8,0.1,13.1,0.3c2.6,0.1,5.3,0.5,7.9,0.8c1.7,0.2,3.4,0.3,5.2,0.6c3.1,0.5,6.2,1.2,9.3,1.6c1.9,0.2,3.8,0,5.7,0.2
	c2.3,0.2,4.5,0.6,6.8,1c2,0.4,4.2,0.5,5.9,1.5c2.6,1.4,5.3,1.5,8.1,1.5c-0.3,4.8-0.7,9.6-1,14.5C223.7,472,223.8,473.3,223.7,474.6
	L223.7,474.6z"/>
<path class="st11" d="M224.8,456.2c-2.8,0-5.5-0.1-8.1-1.5c-1.7-0.9-3.9-1.1-5.9-1.5c-2.2-0.4-4.5-0.8-6.8-1
	c-1.9-0.2-3.8,0.1-5.7-0.2c-3.1-0.4-6.2-1.1-9.3-1.6c-1.7-0.3-3.4-0.4-5.2-0.6c-2.6-0.3-5.3-0.6-7.9-0.8c-4.4-0.2-8.8-0.2-13.1-0.3
	c-0.9,0-1.7,0-2.6,0c-5.6,0.1-11.3,0.2-16.9,0.2c-4.1,0-8.1,0-12.2,0.2c-3.7,0.1-7.4,0.4-11.1,0.8c-2.6,0.3-5.2,0.8-7.8,1.2
	c-3.5,0.5-7,1.5-10.4,1.5c-3.5,0.1-6.6,1.2-9.9,2c-2.8,0.6-5.6,1-8.3,1.6c-3.9,0.8-7.8,1.7-11.7,2.6c-4,1-8,2-12,3.1
	c-1,0.3-1.8,0.9-2.7,1.4c0.2-5.1,0.5-10.2,0.7-15.4c4.6-1.3,9.3-2.7,13.9-3.9c1.4-0.4,2.8-0.6,4.2-0.9c3.2-0.6,6.3-1.2,9.5-1.8
	c2.2-0.5,4.4-1.6,6.5-1.5c5,0.4,9.7-1.2,14.6-1.7c5.7-0.5,11.4-1.1,17.1-1.4c4.5-0.3,9.1-0.3,13.6-0.4c2.8-0.1,5.5-0.3,8.3-0.4
	c3.4-0.1,6.8,0,10.1,0h12.5c2.4,0,4.8,0,7.2,0c1.9,0,3.8,0.1,5.7,0.3c1.5,0.1,3.1,0.7,4.4,0.4c4.6-1.1,9,0.9,13.5,1
	c4,0.1,8,1.3,12,2c3.6,0.6,7.2,1.3,10.8,1.9c1.4,0.2,2.8,0,4.2,0c0,0.9,0,1.8-0.1,2.7c0,0.2,0,0.3,0,0.5c-0.2,3.1-0.5,6.2-0.7,9.4
	C224.8,454.8,224.8,455.5,224.8,456.2L224.8,456.2z"/>
<path class="st10" d="M55,499.2c0.2,0.8,0.4,1.5,0.6,2.2c0.8-0.3,1.6-0.5,2.4-0.8c2.2-0.9,4.5-1.9,6.7-2.9c1.1-0.5,2.3-1,3.4-1.5
	c2.9-1.2,5.8-2.6,8.8-3.7c2.8-1,5.8-1.7,8.6-2.5c2.1-0.6,4.3-1.2,6.4-1.8c1.6-0.4,3.1-0.9,4.6-1.3c4.4-1,8.8-2.1,13.2-2.9
	c3.3-0.6,6.8-0.9,10.1-1.3c3.3-0.4,6.6-0.8,9.9-1.2c1.5-0.2,3-0.3,4.5-0.8c2.1-0.7,4.6-0.1,6.9,0c0.8,0,1.6,0.1,2.4,0.1
	c2.4,0,4.7,0,7.1-0.1c2.1-0.1,4.2-0.3,6.4-0.3c1.1,0,2.1,0.2,3.2,0.3c3.1,0.4,6.2,0.8,9.4,1c0.6,0,1.3-0.5,2.1-0.9
	c0.7,1.3,1.9,1.1,3.3,1.2c3.8,0.2,7.6,1.1,11.4,1.8c2.2,0.4,4.4,0.6,6.6,1c5.2,1,10.4,2,15.7,3.1c0.6,0.1,1.2,0.6,1.9,0.8
	c3,1,6.1,2,9.1,3c0.9,0.3,1.8,0.7,2.7,1.1c-0.2,4.3-0.4,8.5-0.6,12.8c-1.5-0.4-3-0.8-4.4-1.3c-2.1-0.6-4.2-1.4-6.3-2
	c-0.8-0.2-1.6-0.1-2.4-0.3c-3.1-0.8-6.3-1.8-9.4-2.6c-3.4-0.9-6.9-1.6-10.4-2.4c-3.9-1-8.1-0.3-11.9-2.1c-0.2-0.1-0.4-0.1-0.6-0.1
	c-1.4,0.1-2.9,0.2-4.3,0.3c-0.4,0-0.8-0.3-1.2-0.4c-0.7-0.2-1.4-0.6-2-0.7c-2.1-0.1-4.4,0.5-6.2-0.1c-3-1-5.9-0.1-8.8-0.2
	c-0.4,0-0.7-0.1-1.1-0.1c-1.5-0.1-3-0.2-4.5-0.2c-0.8,0-1.6,0.2-2.4,0.3c-2.6,0.1-5.3-0.9-7.9,0.2c-1.1,0.5-2.4,0.3-3.8,0.4
	c-0.6-0.1-1.6-0.3-2.4-0.2c-2.4,0.3-4.8,0.7-7.2,1c-3.5,0.5-7,0.9-10.5,1.4c-2.3,0.4-4.7,0.8-7,1.3c-1.1,0.2-2.2,0.8-3.3,1
	c-1.8,0.4-3.7,0.5-5.6,0.8c-0.7,0.1-1.7,0-2.1,0.4c-1.4,1.4-3,1.5-4.8,1.5c-0.6,0-1.5,0-1.7,0.4c-1.1,1.6-2.8,1.6-4.3,1.8
	c-3.5,0.5-6.7,1.9-10,3c-1.2,0.4-2.4,0.6-3.5,1.1c-3,1.4-6,3-9,4.5c-1.9,0.9-3.7,1.9-5.7,2.7c-1.2,0.5-2.6,0.8-3.9,1.1
	c0.2-5.5,0.5-10.9,0.8-16.4C54.4,499.7,54.8,499.5,55,499.2L55,499.2z"/>
<path class="st18" d="M53.6,516.2c1.3-0.4,2.6-0.6,3.9-1.1c1.9-0.8,3.8-1.8,5.7-2.7c3-1.5,6-3.1,9-4.5c1.1-0.5,2.3-0.7,3.5-1.1
	c3.3-1.1,6.5-2.5,10-3c1.4-0.2,3.2-0.2,4.3-1.8c0.2-0.4,1.1-0.4,1.7-0.4c1.8,0,3.4-0.1,4.8-1.5c0.4-0.4,1.4-0.3,2.1-0.4
	c1.9-0.3,3.7-0.5,5.6-0.8c1.1-0.2,2.2-0.7,3.3-1c2.3-0.5,4.7-1,7-1.3c3.5-0.5,7-1,10.5-1.4c2.4-0.3,4.8-0.7,7.2-1
	c0.9-0.1,1.8,0.1,2.4,0.2c1.4-0.1,2.8,0.1,3.8-0.4c2.7-1.1,5.3,0,7.9-0.2c0.8,0,1.6-0.3,2.4-0.3c1.5,0,3,0.1,4.5,0.2
	c0.4,0,0.7,0.1,1.1,0.1c2.9,0.2,5.8-0.8,8.8,0.2c1.9,0.6,4.1,0.1,6.2,0.1c0.7,0,1.4,0.4,2,0.7c0.4,0.1,0.8,0.4,1.2,0.4
	c1.4,0,2.9-0.2,4.3-0.3c0.2,0,0.4,0,0.6,0.1c3.8,1.9,8,1.2,11.9,2.1c3.4,0.9,6.9,1.6,10.4,2.4c3.2,0.8,6.3,1.8,9.4,2.6
	c0.8,0.2,1.6,0.1,2.4,0.3c2.1,0.6,4.2,1.3,6.3,2c1.5,0.5,3,0.9,4.4,1.3c-0.1,4-0.2,8-0.4,12c-2.6-0.8-5.2-1.6-7.8-2.3
	c-1-0.3-2.1-0.1-3-0.4c-1.3-0.5-2.3-1.4-3.6-1.8c-1.7-0.5-3.5-0.6-5.2-1.1c-2.8-0.8-5.6-1.8-8.4-2.5c-2.1-0.5-4.2-0.8-6.4-1.2
	c-1.6-0.3-3.2-0.7-4.8-1c-2.6-0.4-5.3-0.6-7.9-0.9c-2.1-0.2-4.3-0.7-6.5-0.8c-2-0.1-3.9-0.5-6-0.1c-1.6,0.3-3.4-0.5-5.1-0.7
	c-0.7-0.1-1.4-0.4-2-0.2c-3,1-6,0.3-9,0.1c-1.5-0.1-3.1,0.8-4.6,0.6c-5.1-0.6-10.1,0.6-15.2,0.9c-1.9,0.1-3.8,0.6-5.8,0.3
	c-0.4-0.1-0.9,0.3-1.3,0.5c-0.6,0.2-1.2,0.5-1.9,0.6c-1.3,0.2-2.6,0.3-3.9,0.5c-0.9,0.1-1.9,0.1-2.8,0.4c-0.9,0.2-1.7,0.7-2.5,1
	c-0.6,0.2-1.1,0.6-1.7,0.7c-4.1,0.8-8.2,1.5-12.3,2.3c-1.1,0.2-2.1,1-3.1,1.5c-0.1,0-0.2,0.2-0.3,0.2c-3.1-0.3-5.4,2.1-8.4,2.6
	c-2,0.3-4.5,0.4-5.9,2.6c-0.1,0.2-0.4,0.3-0.6,0.4c-4.1,0.7-7.5,3-11.3,4.4c-3.5,1.4-7.3,2.5-9.9,5.7c-0.3,0.4-1.1,0.4-1.7,0.7
	C53.2,525.7,53.4,521,53.6,516.2L53.6,516.2z"/>
<path class="st19" d="M147.9,125.7c-4.2,0.3-8.4,0.7-12.5,1c-0.6,0.1-1.2,0.1-1.9,0.1c-0.6-6.1-1.3-12.3-2-18.4
	c6.2-0.1,12.4-0.2,18.5-0.3C149.3,113.9,148.6,119.8,147.9,125.7z"/>
<path class="st20" d="M147.9,125.7c0.7-5.9,1.4-11.8,2.2-17.7c0.1-0.4,0.2-0.8,0.2-1.3c0.4-10.3-0.6-20.5-3.9-30.3
	c-1.9-5.7-4.2-11.2-6.3-16.8c-0.3-0.7-1-1.1-1.6-1.7c-0.4,0.7-1,1.2-1.2,2c-1.3,4.9-2.9,9.7-3.7,14.7c-1.1,6.9-1.8,13.8-2.2,20.8
	c-0.3,4.3,0.1,8.6,0.2,12.9c0.6,6.1,1.3,12.3,2,18.4c0.2,1.4,0.4,2.8,0.6,4.2c-0.2,0-0.4,0-0.6,0c-0.7-3.3-1.3-6.5-2-9.8
	c-0.5-8.3-1.3-16.6-1.3-24.8c0-12.5,2.1-24.7,6-36.6c0.1-0.4,0.2-0.8,0.4-1c0.6-0.6,1.2-1.5,1.8-1.6c0.6,0,1.6,0.7,2,1.4
	c1,1.8,1.9,3.8,2.7,5.8c3.1,8.4,6.1,16.9,7.4,25.9c1,7.3,1,14.6,0.4,21.9c-0.1,1.4-0.3,2.9-0.4,4.3c-1.4,8.6-3.4,17-6.3,25.2
	c-0.1,0-0.1,0-0.2,0c0.9-3.5,1.9-7.1,2.8-10.6C147.2,129.2,147.5,127.5,147.9,125.7L147.9,125.7z"/>
<path class="st17" d="M143.9,141.4c0.1,0,0.1,0,0.2,0c-0.2,0.6-0.3,1.2-0.5,1.8c0.1,0,0.2,0.1,0.2,0.1c0.4-0.5,0.8-1,1.2-1.5
	c0.2,0.4,0.4,0.7,0.6,1.1c-0.9,1.9-2.5,3.4-4.8,4.4C142,145.2,143,143.3,143.9,141.4L143.9,141.4z"/>
<path class="st11" d="M133.5,131c0.2,0,0.4,0,0.6,0c0.8,3.4,1.6,6.9,2.4,10.3c-0.1,0-0.3,0.1-0.4,0.1L133.5,131L133.5,131z"/>
<path class="st4" d="M145.1,141.8c-0.4,0.5-0.8,1-1.2,1.5c-0.1,0-0.2-0.1-0.2-0.1c0.2-0.6,0.3-1.2,0.5-1.8
	c2.9-8.2,4.9-16.6,6.3-25.2c0.9,0,1.7,0.1,2.6,0.1c-0.7,4.5-1.5,8.9-2.2,13.4c-0.1,0.5,0,1.1,0,1.6l0,0c-0.1,0.4-0.3,0.7-0.5,1.1
	C148.6,135.6,146.8,138.7,145.1,141.8z"/>
<path class="st16" d="M150.3,132.5c0.1-0.4,0.3-0.7,0.5-1.1C150.6,131.8,150.5,132.2,150.3,132.5z"/>
<path class="st9" d="M133.4,150.9c-0.5-0.1-0.9-0.1-1.4-0.1c0-0.3,0-0.6-0.1-0.9C132.4,150.2,132.9,150.5,133.4,150.9L133.4,150.9z"
	/>
<path class="st21" d="M59.1,327.9c3-0.1,5.9-0.1,8.8,1.2c1.3,0.6,3,0.4,4.6,0.6c4.2,0.5,8.4,1.3,12.6,1.5c5.3,0.3,10.6,0.2,15.8,0
	c6-0.3,12-0.9,18-1.4c0.2,0,0.5,0,0.8,0c5.4-0.1,10.8-0.3,16.2-0.4c4.6-0.1,9.3-0.1,14,0c5.6,0.2,11.1,0.7,16.7,1
	c4.1,0.3,8.2,0.5,12.4,0.8c2.8,0.2,5.7,0.7,8.5,0.9c2.9,0.2,5.9,0.2,8.8,0.3c2.5,0.1,5,0.2,7.5,0.1c1.4,0,2.8-0.2,4.3-0.3
	c1.2-0.1,2.5-0.2,3.7-0.3c2.2-0.3,4.5-0.6,6.7-0.9c3.4-0.4,6.8-0.7,10.2-1c2.3-0.1,4.6,0.1,6.5-1.5c0.5-0.4,1.3-0.4,2-0.5
	c3.5-0.6,6.7-2,9.9-3.4c1.7-0.8,3.5-1.1,5.2-1.9c2.5-1.2,4.9-2.5,7.2-4c1.1-0.7,1.7-2.1,2.7-3c0.5-0.5,1.2-1.2,1.9-1.3
	c1.6-0.3,2.8-1,3.5-2.5c1.4,4.3,2.3,8.7,2.2,13.3c0.1,0.4,0.2,0.8,0.3,1.1c0,1.2,0,2.5,0,3.8c-1.7,0-3,0.7-4.3,1.8
	c-2.3,1.7-4.9,2.8-7.4,4.2c-0.2,0.1-0.5,0-0.7,0.1c-0.6,0.2-1.3,0.4-1.9,0.6c-3.8,1.4-7.6,3-11.4,4.3c-3.9,1.3-7.9,2.3-11.9,3.5
	c-2.1-2.6-2.6-5.8-3.2-9c-0.1-0.3,0-0.7-0.1-0.9c-0.3-0.6-0.7-1.1-1.1-1.7c-0.1,0.7-0.2,1.4-0.2,2c0,0.4,0.1,0.7,0.1,1.1
	c-0.2,0.2-0.3,0.5-0.5,0.8c-0.5-1-1-2.1-1.4-3.1c-0.2,0.1-0.4,0.1-0.7,0.2c0.1,0.6,0,1.2,0.2,1.7c2.3,5,2.6,10.5,2.9,15.9
	c-0.7,0.1-1.3,0.3-2,0.4c-5.9,0.4-11.8,1-17.6,1.3c-6.9,0.3-13.9,0.5-20.8,0.6c-3.2,0-6.5-0.4-9.7-0.3c-3.9,0.1-7.8,0.6-11.7,0.6
	c-4.8,0-9.6-0.2-14.5-0.3c-5.5-0.1-11-0.4-16.5-0.4c-5.4,0-10.7,0.2-16.1,0.4c-0.9,0-1.8,0.2-2.7,0.1c-2.8-0.1-5.5-0.5-8.3-0.5
	c-2.7,0-5.4,0.3-8.1,0.3c-3.7,0.1-7.4,0.1-11.1,0c-3.8-0.1-7.6-0.5-11.3-0.8c-1.7-0.1-3.5-0.2-5.2-0.5c-4.4-0.7-8.8-1.4-13.2-2.1
	c-0.1-3.1-0.2-6.2-0.3-9.4C59.1,336.7,59.1,332.3,59.1,327.9L59.1,327.9z"/>
<path class="st22" d="M232.2,344.5c4-1.1,8-2.2,11.9-3.5c3.9-1.3,7.6-2.9,11.4-4.3c0.6-0.2,1.3-0.4,1.9-0.6c0.2-0.1,0.5,0,0.7-0.1
	c2.5-1.4,5.1-2.5,7.4-4.2c1.4-1,2.6-1.7,4.3-1.8c-0.5,4.3-1,8.5-1.4,12.8c-1.3,0.3-2.7,0.6-3.9,1c-3,1.2-6,2.8-9.1,3.7
	c-5,1.5-10.2,2.6-15.2,3.9c-0.6,0.1-1.2,0.2-1.8,0.4C236.3,349.4,234.2,347,232.2,344.5L232.2,344.5z"/>
<path class="st23" d="M238.4,351.9c0.6-0.1,1.2-0.2,1.8-0.4c5.1-1.3,10.2-2.4,15.2-3.9c3.1-0.9,6-2.5,9.1-3.7c1.2-0.5,2.6-0.7,3.9-1
	c-0.9,4.3-2.6,8.3-5.4,11.8c-3.4,4.2-7.8,5.6-13,4.2C245.5,357.7,241.7,355.2,238.4,351.9L238.4,351.9z"/>
<path class="st5" d="M269.8,326.4c-0.1-0.4-0.2-0.8-0.3-1.1C269.6,325.6,269.7,326,269.8,326.4z"/>
<path class="st24" d="M227.1,415.3c-0.2,4.5-0.5,9-0.8,13.5c-0.9-0.1-1.7-0.2-2.6-0.3c-3.4-0.6-6.8-1.5-10.2-1.9
	c-4.8-0.5-9.5-0.6-14.3-0.8c-1.1-0.1-2.2-0.2-3.3-0.3c-1.8-0.2-3.6-0.6-5.4-0.7c-2-0.1-4,0.3-6,0.2c-3.1-0.1-6.2-0.6-9.3-0.7
	c-3.8,0-7.6,0.3-11.4,0.3c-2.6,0-5.2-0.3-7.9-0.3c-4.6,0-9.2,0.2-13.8,0.3c-2.6,0-5.2-0.1-7.8,0.1c-3.1,0.1-6.3,0.5-9.4,0.7
	c-4.2,0.3-8.5,0.5-12.8,0.8c-6.2,0.5-12.5,0.8-18.7,1.5c-7.2,0.9-14.3,2.1-21.5,3.1c-0.9,0.1-1.8-0.1-2.7,0.1
	c-3.1,0.8-6.3,1.5-9.3,2.5c-1,0.3-1.5,0.1-1.8-0.8c0.2-4.5,0.4-9,0.6-13.6c1.8-0.2,3.6-0.3,5.4-0.6c4.7-0.6,9.4-1.5,14.2-2
	c3.8-0.4,7.7-0.5,11.5-0.8c6.3-0.4,12.6-0.8,19-1.1c5-0.2,10.1-0.2,15.1-0.4c3.8-0.1,7.7-0.3,11.5-0.5c5.8-0.2,11.6-0.5,17.4-0.6
	c2.9-0.1,5.7,0.3,8.6,0.3c5.5,0,11-0.2,16.5-0.3c1.1,0,2.2,0.2,3.3,0.2c3.3,0,6.7-0.2,10-0.1c5.2,0.1,10.4,0.3,15.6,0.5
	c2.1,0.1,4.3,0.1,6.4,0.2C217.9,414.3,222.5,414.9,227.1,415.3L227.1,415.3z"/>
<path class="st25" d="M58.2,432.6c0.3,0.9,0.8,1.1,1.8,0.8c3.1-0.9,6.2-1.7,9.3-2.5c0.9-0.2,1.8,0,2.7-0.1c7.2-1,14.3-2.2,21.5-3.1
	c6.2-0.7,12.5-1.1,18.7-1.5c4.2-0.3,8.5-0.5,12.8-0.8c3.1-0.2,6.3-0.5,9.4-0.7c2.6-0.1,5.2,0,7.8-0.1c4.6-0.1,9.2-0.3,13.8-0.3
	c2.6,0,5.2,0.3,7.9,0.3c3.8,0,7.6-0.4,11.4-0.3c3.1,0,6.2,0.5,9.3,0.7c2,0.1,4-0.3,6-0.2c1.8,0.1,3.6,0.5,5.4,0.7
	c1.1,0.1,2.2,0.3,3.3,0.3c4.8,0.3,9.6,0.3,14.3,0.8c3.4,0.4,6.8,1.2,10.2,1.9c0.9,0.2,1.7,0.2,2.6,0.3c-0.1,1.9-0.1,3.8-0.2,5.6
	c-0.1,0.9-0.1,1.7-0.1,2.6c-0.1,0.6-0.2,1.3-0.3,1.9c0,0.9,0,1.7-0.1,2.6c-1.4,0-2.8,0.2-4.2,0c-3.6-0.5-7.2-1.2-10.8-1.9
	c-4-0.7-8-1.9-12-2c-4.5-0.1-8.9-2.1-13.5-1c-1.4,0.3-2.9-0.3-4.4-0.4c-1.9-0.1-3.8-0.2-5.7-0.3c-2.4,0-4.8,0-7.2,0h-12.5
	c-3.4,0-6.8,0-10.1,0c-2.8,0-5.5,0.3-8.3,0.4c-4.6,0.1-9.1,0.1-13.7,0.4c-5.7,0.4-11.4,0.9-17,1.4c-4.9,0.4-9.6,2-14.6,1.7
	c-2.1-0.1-4.3,1-6.5,1.5c-3.2,0.6-6.3,1.2-9.5,1.8c-1.4,0.3-2.8,0.5-4.2,0.9c-4.6,1.3-9.3,2.6-13.9,3.9c0-4.6,0-9.2,0-13.8
	C57.8,433.6,58,433.1,58.2,432.6L58.2,432.6z"/>
<path class="st26" d="M227.1,415.3c-4.6-0.5-9.2-1-13.9-1.4c-2.1-0.2-4.3-0.2-6.4-0.2c-5.2-0.2-10.4-0.4-15.6-0.5
	c-3.3-0.1-6.6,0.1-10,0.1c-1.1,0-2.2-0.2-3.3-0.2c-5.5,0.1-11,0.3-16.5,0.3c-2.9,0-5.7-0.4-8.6-0.3c-5.8,0.1-11.6,0.4-17.4,0.6
	c-3.8,0.1-7.7,0.3-11.5,0.5c-5,0.2-10.1,0.2-15.1,0.4c-6.3,0.3-12.6,0.7-19,1.1c-3.8,0.2-7.7,0.4-11.5,0.8c-4.7,0.5-9.4,1.4-14.2,2
	c-1.8,0.2-3.6,0.4-5.4,0.6c0-0.4-0.1-0.8-0.1-1.1c0.1-0.1,0.1-0.2,0-0.3c0.1-3.9,0.2-7.8,0.3-11.7c1.2,0.1,2.5,0.4,3.7,0.4
	c5-0.3,9.9-0.8,14.9-1.1c7.9-0.4,15.8-0.5,23.7-0.8c1.2,0,2.3,0.4,3.5,0.3c3.5-0.2,7.1-0.5,10.6-0.6c2.5-0.1,5.1,0.3,7.6,0.2
	c4.2-0.1,8.3-0.5,12.5-0.6c5.1-0.2,10.2-0.3,15.3-0.4c7-0.1,14-0.3,20.9-0.4c15.5,0,30.9,0,46.4,0c3.2,0,6.5,0.2,9.7,0.4
	c-0.2,2.7-0.5,5.4-0.6,8.1C227.1,412.7,227.1,414,227.1,415.3L227.1,415.3z"/>
<path class="st27" d="M227.8,403.3c-3.2-0.1-6.5-0.3-9.7-0.4c-15.5,0-30.9,0-46.4,0c-7,0-14,0.2-20.9,0.4
	c-5.1,0.1-10.2,0.2-15.3,0.4c-4.2,0.1-8.3,0.5-12.5,0.6c-2.5,0.1-5.1-0.3-7.6-0.2c-3.5,0.1-7.1,0.5-10.6,0.6c-1.2,0-2.3-0.3-3.5-0.3
	c-7.9,0.2-15.8,0.4-23.7,0.8c-5,0.2-9.9,0.8-14.9,1.1c-1.2,0.1-2.5-0.2-3.7-0.4c-0.1-0.3-0.3-0.6-0.4-0.9v-0.1
	c0.2-2.5,0.4-5,0.5-7.5c0.1-1.2,0.1-2.3,0.1-3.5c0.9,0.1,1.8,0.4,2.8,0.4c3.1,0,6.2,0,9.3,0h12.2c5.3,0,10.6,0,15.8,0
	c2.2,0,4.4,0,6.7,0c4.9-0.1,9.8-0.3,14.8-0.4c11.2-0.2,22.3-0.2,33.5-0.4c2,0,4-0.3,5.9-0.3c2.4,0,4.9,0.1,7.4,0
	c3.7-0.1,7.3-0.3,11-0.4c1.9,0,3.9,0.4,5.8,0.3c4.5-0.1,8.9-0.6,13.4-0.7c7.8-0.2,15.6-0.3,23.4-0.4c2.4,0,4.8,0,7.2,0
	C228.1,395.8,227.9,399.6,227.8,403.3L227.8,403.3z"/>
<path class="st6" d="M58.7,417.6c0.1,0.1,0.1,0.2,0,0.3c0-0.1-0.1-0.1-0.1-0.2C58.6,417.7,58.7,417.6,58.7,417.6L58.7,417.6z"/>
<path class="st23" d="M59.4,350.4c4.4,0.7,8.8,1.5,13.2,2.1c1.7,0.3,3.4,0.3,5.2,0.5c3.8,0.3,7.5,0.6,11.3,0.8
	c3.7,0.1,7.4,0.1,11.1,0c2.7,0,5.4-0.3,8.1-0.3c2.8,0,5.5,0.4,8.3,0.5c0.9,0,1.8-0.1,2.7-0.1c5.3-0.1,10.7-0.4,16.1-0.4
	c5.5,0,11,0.2,16.5,0.4c4.8,0.1,9.6,0.4,14.5,0.3c3.9,0,7.8-0.5,11.7-0.6c3.2-0.1,6.5,0.3,9.7,0.3c6.9-0.1,13.9-0.3,20.8-0.6
	c5.9-0.3,11.8-0.8,17.6-1.3c0.7,0,1.3-0.2,2-0.4c0.2,4.3,0.4,8.5,0.5,12.8c0,1.1-0.1,2.2-0.1,3.4c-3.4,0.4-6.9,0.8-10.3,1.1
	c-3.3,0.3-6.6,0.5-9.9,0.7c-3.4,0.2-6.9,0.4-10.4,0.5c-1.8,0.1-3.7-0.1-5.5,0c-2.7,0.1-5.4,0.6-8.1,0.7c-3.4,0.1-6.8,0-10.2,0
	c-5.6,0-11.2,0-16.8,0c-2.6,0-5.2,0.2-7.8,0.3c-3.5,0-7-0.2-10.4-0.2c-5.6,0.1-11.3,0.5-16.9,0.6c-4.8,0-9.7-0.3-14.6-0.3
	c-5.3-0.1-10.6,0.1-15.9,0c-5.5-0.1-11.1-0.5-16.6-0.7c-0.2,0-0.5-0.1-0.7-0.1c-4.9-0.6-9.8-1.1-14.8-1.7
	C59.5,362.4,59.5,356.4,59.4,350.4L59.4,350.4z"/>
<path class="st28" d="M59.5,368.4c4.9,0.6,9.8,1.1,14.8,1.7c0.2,0,0.5,0.1,0.7,0.1c5.5,0.3,11.1,0.6,16.6,0.7c5.3,0.1,10.6,0,15.9,0
	c4.9,0.1,9.7,0.4,14.6,0.3c5.6-0.1,11.3-0.5,16.9-0.6c3.5-0.1,7,0.2,10.4,0.2c2.6,0,5.2-0.2,7.8-0.3c5.6,0,11.2,0,16.8,0
	c3.4,0,6.8,0.1,10.2,0c2.7-0.1,5.4-0.5,8.1-0.7c1.8-0.1,3.7,0.1,5.5,0c3.5-0.1,6.9-0.3,10.4-0.5c3.3-0.2,6.6-0.4,9.9-0.7
	c3.4-0.3,6.9-0.7,10.3-1.1c0,4.4-0.1,8.8-0.1,13.1c-6.4,0.4-12.8,0.8-19.1,1.1c-7.7,0.3-15.4,0.5-23.1,0.8
	c-5.2,0.1-10.5,0.2-15.7,0.4c-4.8,0.1-9.5,0.3-14.3,0.4c-5.5,0.1-11.1,0.3-16.6,0.4c-5.1,0-10.1-0.2-15.1-0.2
	c-5.6,0-11.3,0.2-16.9,0.2c-5.3,0-10.7,0-16,0c-3,0-6.1-0.2-9.1-0.4c-3.9-0.1-7.8-0.2-11.7-0.4c-3.8-0.2-7.5-0.5-11.3-0.7
	C59.5,377.7,59.5,373,59.5,368.4L59.5,368.4z"/>
<path class="st29" d="M59.4,382.3c3.8,0.2,7.5,0.5,11.3,0.7c3.9,0.2,7.8,0.3,11.7,0.4c3,0.1,6.1,0.3,9.1,0.4c5.3,0.1,10.7,0,16,0
	c5.6,0,11.3-0.2,16.9-0.2c5,0,10.1,0.2,15.1,0.2c5.5,0,11.1-0.2,16.6-0.4c4.8-0.1,9.5-0.2,14.3-0.4c5.2-0.1,10.5-0.2,15.7-0.4
	c7.7-0.2,15.4-0.4,23.1-0.8c6.4-0.3,12.8-0.7,19.1-1.1c-0.1,3.8-0.2,7.5-0.3,11.3c-2.4,0-4.8,0-7.2,0c-7.8,0.1-15.6,0.2-23.4,0.4
	c-4.5,0.1-8.9,0.5-13.4,0.7c-1.9,0.1-3.8-0.3-5.8-0.3c-3.7,0.1-7.3,0.3-11,0.4c-2.4,0.1-4.9-0.1-7.4,0c-2,0-4,0.3-5.9,0.3
	c-11.2,0.1-22.3,0.2-33.5,0.4c-4.9,0.1-9.8,0.3-14.8,0.4c-2.2,0-4.4,0-6.7,0c-5.3,0-10.6,0-15.8,0H71.3c-3.1,0-6.2,0-9.3,0
	c-0.9,0-1.8-0.2-2.8-0.4C59.3,390,59.3,386.1,59.4,382.3L59.4,382.3z"/>
<path class="st17" d="M58.5,311.8c0,0.8,0,1.5,0.1,2.3C58.5,313.3,58.5,312.5,58.5,311.8z"/>
<path class="st17" d="M57.3,288.1c0,0.6,0.1,1.3,0.1,1.9C57.4,289.4,57.4,288.8,57.3,288.1z"/>
<path class="st17" d="M58.1,302.4c0,0.6,0.1,1.3,0.1,1.9C58.1,303.7,58.1,303,58.1,302.4z"/>
<path class="st17" d="M57.7,294.9c0,0.5,0,1,0.1,1.5C57.8,295.9,57.7,295.4,57.7,294.9z"/>
<path class="st17" d="M58.8,324.9c0,0.5,0,1,0,1.5C58.9,325.9,58.9,325.4,58.8,324.9z"/>
<path class="st0" d="M225.7,439c0.1-0.6,0.2-1.3,0.3-1.9C225.9,437.7,225.8,438.3,225.7,439z"/>
<path class="st0" d="M130.8,570c-0.5,0.3-1,0.7-1.5,1c-0.1-0.2-0.2-0.3-0.4-0.5c0.5-0.4,0.9-0.8,1.4-1.1
	C130.5,569.6,130.6,569.8,130.8,570L130.8,570z"/>
<path class="st0" d="M156.3,570.6c-0.5-0.1-0.9-0.3-1.8-0.5C155.8,569.3,156.3,569.5,156.3,570.6L156.3,570.6z"/>
<path class="st0" d="M81,589.4c-0.4-0.2-0.8-0.4-1.1-0.6c0.1-0.2,0.2-0.4,0.3-0.5c0.4,0.2,0.8,0.4,1.1,0.6
	C81.2,589,81.1,589.2,81,589.4L81,589.4z"/>
<path class="st0" d="M111.8,575.6c0.2-0.4,0.4-0.7,0.6-1.1l0.4,0.2c-0.2,0.4-0.3,0.8-0.5,1.2L111.8,575.6L111.8,575.6z"/>
<path class="st15" d="M131.5,108.4c-0.1-4.3-0.5-8.6-0.2-12.9c0.5-7,1.1-13.9,2.2-20.8c0.8-5,2.4-9.8,3.7-14.7
	c0.2-0.7,0.8-1.3,1.2-2c0.5,0.5,1.3,1,1.6,1.7c2.2,5.6,4.4,11.1,6.3,16.8c3.3,9.8,4.3,20,3.9,30.3c0,0.4-0.1,0.8-0.2,1.3
	C143.9,108.2,137.7,108.3,131.5,108.4L131.5,108.4z"/>
</svg>
